<?xml version="1.0" encoding="UTF-8"?>
<svg version="1.1" xmlns="http://www.w3.org/2000/svg" width="992" height="1056">
<path d="M0 0 C1.93527142 0.95454667 3.8329214 1.98709091 5.69921875 3.0703125 C7.36911865 4.03239624 7.36911865 4.03239624 9.07275391 5.01391602 C10.27773761 5.71749364 11.48265113 6.4211915 12.6875 7.125 C13.94411816 7.85213915 15.20112306 8.57861033 16.45849609 9.30444336 C19.04627864 10.7996765 21.63175689 12.2987785 24.21533203 13.80126953 C28.78168906 16.456189 33.35964117 19.09086916 37.93725586 21.72631836 C41.14721667 23.57529709 44.35515214 25.42774285 47.5625 27.28125 C51.89408507 29.7842949 56.22744603 32.28421773 60.5625 34.78125 C72.04959095 41.39909168 83.51945745 48.04487232 94.96582031 54.73291016 C105.51883187 60.89488659 116.1066104 66.99617839 126.69580078 73.09570312 C130.02614252 75.01506662 133.35509148 76.93682353 136.68359375 78.859375 C154.31873655 89.04500047 171.96598954 99.20108964 189.75 109.125 C197.35719787 113.37213219 204.92596458 117.66806017 212.41918945 122.11303711 C218.72999998 125.85441936 225.08074515 129.52480062 231.4375 133.1875 C233.09833618 134.14450806 233.09833618 134.14450806 234.79272461 135.12084961 C237.06337068 136.42889477 239.33412358 137.73675448 241.60498047 139.04443359 C247.0716998 142.19332054 252.53574887 145.34683264 258 148.5 C260.16665311 149.7500235 262.33331979 151.00002347 264.5 152.25 C286.16666667 164.75 307.83333333 177.25 329.5 189.75 C330.57419189 190.3697168 331.64838379 190.98943359 332.75512695 191.62792969 C334.90473634 192.86810761 337.05431358 194.10834127 339.20385742 195.34863281 C344.27309212 198.2735023 349.34264936 201.19780833 354.4133606 204.12011719 C356.80426597 205.49806938 359.19498672 206.87634172 361.58569336 208.25463867 C363.26983963 209.22540982 364.95425231 210.19571874 366.63867188 211.16601562 C367.66154297 211.75576172 368.68441406 212.34550781 369.73828125 212.953125 C370.63587158 213.47036133 371.53346191 213.98759766 372.45825195 214.52050781 C373.29702881 215.00874023 374.13580566 215.49697266 375 216 C375.92127686 216.45213867 376.84255371 216.90427734 377.79174805 217.37011719 C380 219 380 219 380.61523438 221.3203125 C380.60459961 222.70863281 380.60459961 222.70863281 380.59375 224.125 C380.59358887 225.20064209 380.59342773 226.27628418 380.59326172 227.38452148 C380.54709717 229.17418335 380.54709717 229.17418335 380.5 231 C380.47123779 232.90664429 380.47123779 232.90664429 380.44189453 234.85180664 C378.88747325 315.42871048 363.00538365 394.7613718 337.0625 470.875 C336.79345856 471.66733032 336.52441711 472.45966064 336.2472229 473.27600098 C333.24926339 482.06602516 330.08080489 490.63927138 326 499 C322.67957732 497.72556087 319.55840492 496.30525446 316.4375 494.6015625 C315.5697998 494.12879883 314.70209961 493.65603516 313.80810547 493.16894531 C312.88143066 492.65944336 311.95475586 492.14994141 311 491.625 C310.02305176 491.0897168 309.04610352 490.55443359 308.03955078 490.00292969 C298.9375397 484.99821623 289.91727648 479.85600322 280.9140625 474.67626953 C275.40464215 471.5070604 269.89117006 468.34494255 264.375 465.1875 C263.78635162 464.85049072 263.19770325 464.51348145 262.59121704 464.16625977 C252.66006086 458.4842474 242.67353037 452.90871112 232.66259766 447.3684082 C224.12086607 442.63670716 215.63360595 437.81641858 207.1640625 432.95703125 C201.66399037 429.80254714 196.14602628 426.68013028 190.625 423.5625 C189.66456787 423.02004639 188.70413574 422.47759277 187.71459961 421.91870117 C183.87585129 419.75118337 180.03655857 417.58463276 176.19677734 415.41894531 C164.22181232 408.66448428 152.26902175 401.8727763 140.33889771 395.03945923 C132.00409934 390.26697143 123.64020762 385.54955366 115.25 380.875 C107.04596361 376.3040964 98.90877221 371.63405222 90.8125 366.875 C82.3177922 361.88372799 73.74270008 357.07969874 65.07519531 352.39575195 C57.10049686 348.07934963 49.22948573 343.59515592 41.3671875 339.078125 C35.65537844 335.7967382 29.92327658 332.5517678 24.1875 329.3125 C23.30586182 328.81435791 22.42422363 328.31621582 21.51586914 327.80297852 C13.34957991 323.1918766 5.17382676 318.59777755 -3 314 C-3 347.99 -3 381.98 -3 417 C-1.35 417.66 0.3 418.32 2 419 C3.84128129 419.98703997 5.66448046 421.00823398 7.47265625 422.0546875 C8.52638428 422.66304443 9.5801123 423.27140137 10.66577148 423.89819336 C11.78669189 424.55053955 12.9076123 425.20288574 14.0625 425.875 C15.24091248 426.5581178 16.41937993 427.24114078 17.59790039 427.92407227 C26.03725737 432.82267364 34.41890112 437.81376588 42.7734375 442.85546875 C48.85037254 446.5197453 54.95611725 450.13507711 61.0625 453.75 C61.63002991 454.0860022 62.19755981 454.42200439 62.7822876 454.76818848 C65.099814 456.14023229 67.41741899 457.51214313 69.73519897 458.88375854 C73.80885725 461.29449099 77.88136623 463.70715453 81.953125 466.12109375 C92.29818599 472.25400352 102.64488093 478.38408489 113 484.5 C124.52199839 491.30509452 136.03343545 498.12798111 147.54443359 504.95166016 C153.19590084 508.30176185 158.8479973 511.6508018 164.5 515 C166.75000264 516.33332887 169.00000264 517.66666221 171.25 519 C172.36375 519.66 173.4775 520.32 174.625 521 C184.75000001 527 184.75000001 527 188.12451172 528.99975586 C190.37608646 530.33399221 192.62771412 531.66813925 194.87939453 533.00219727 C200.48073697 536.32098659 206.08117163 539.64128816 211.6796875 542.96484375 C213.91137825 544.28919746 216.14314923 545.61341599 218.375 546.9375 C219.48069336 547.59347168 220.58638672 548.24944336 221.72558594 548.92529297 C227.58602015 552.3979859 233.45418285 555.85654666 239.3359375 559.29296875 C239.94886154 559.65110657 240.56178558 560.00924438 241.19328308 560.37823486 C242.11262383 560.91538116 242.11262383 560.91538116 243.05053711 561.46337891 C256.79402405 569.49335761 270.44060338 577.66146229 284 586 C283.41585539 589.72992053 282.37704771 592.50504094 280.515625 595.78125 C279.99911377 596.69519531 279.48260254 597.60914063 278.95043945 598.55078125 C278.38929443 599.52402344 277.82814941 600.49726562 277.25 601.5 C276.67016357 602.51449219 276.09032715 603.52898438 275.49291992 604.57421875 C254.42224948 641.19413986 230.15508736 676.73025753 202.67578125 708.85546875 C200.11753374 711.84947693 197.614762 714.88619964 195.125 717.9375 C194.03638672 719.25814453 194.03638672 719.25814453 192.92578125 720.60546875 C191.75883491 722.05645882 190.62141617 723.53285928 189.54296875 725.05078125 C188.3125 726.75 188.3125 726.75 186 729 C181.37071882 728.72477181 178.12781572 727.21588804 174.16796875 724.89453125 C173.05252686 724.24782471 171.93708496 723.60111816 170.7878418 722.93481445 C169.58772646 722.22737869 168.38761256 721.51994048 167.1875 720.8125 C165.29884749 719.71338517 163.40826138 718.61764512 161.51765442 717.52189636 C160.23039423 716.77543145 158.9437666 716.02787469 157.65776062 715.2792511 C151.54020611 711.71983812 145.37047953 708.25689732 139.1875 704.8125 C137.12484215 703.66043882 135.06234073 702.50809752 133 701.35546875 C131.9996875 700.79649902 130.999375 700.2375293 129.96875 699.66162109 C116.04433818 691.86807283 102.1818887 683.96618197 88.33432007 676.03717041 C79.06542442 670.73158661 69.76049628 665.49317546 60.43408203 660.28930664 C51.54744891 655.32365993 42.70640503 650.28020026 33.88085938 645.20703125 C21.97420184 638.37617818 9.98295865 631.69577807 -2 625 C-2.67519423 638.00228008 -3.18869773 651.00033603 -3.50255299 664.01663876 C-3.65330802 670.0635735 -3.85710277 676.09844494 -4.18774414 682.13842773 C-6.96286146 707.63534073 -6.96286146 707.63534073 0.71542358 730.78192139 C7.0189768 736.86619493 15.01619577 739.86152888 23.18649292 742.57987976 C29.61327582 744.81262967 35.20714552 748.64831381 40.9375 752.25 C43.16184938 753.58715262 45.39696895 754.90469763 47.6328125 756.22265625 C48.70176758 756.85703613 49.77072266 757.49141602 50.87207031 758.14501953 C58.34498805 762.57674206 65.82760566 766.99207639 73.30859375 771.41015625 C76.09151708 773.05406016 78.87394787 774.69879497 81.65625 776.34375 C82.59404297 776.89796631 83.53183594 777.45218262 84.49804688 778.02319336 C86.35156452 779.11925771 88.20444604 780.21639861 90.05664062 781.31469727 C94.39581837 783.88508582 98.74438566 786.43437541 103.125 788.93359375 C103.91865967 789.38968018 104.71231934 789.8457666 105.5300293 790.31567383 C107.01154716 791.16553802 108.49718855 792.00826881 109.98754883 792.8425293 C114.88809161 795.66427483 114.88809161 795.66427483 116 799 C115.05253906 799.76570312 115.05253906 799.76570312 114.0859375 800.546875 C109.29344227 804.44164058 104.54732672 808.37138424 99.88110352 812.41601562 C93.40941413 818.02307363 86.78696299 823.36540477 79.94824219 828.52001953 C77.71639824 830.21543783 75.50269923 831.93322411 73.2890625 833.65234375 C56.19912774 846.87733654 38.41695323 858.99323904 20.19189453 870.59375 C17.75061848 872.15999527 15.32669702 873.7514475 12.90234375 875.34375 C11.18515008 876.458725 9.46770706 877.57331608 7.75 878.6875 C6.95118408 879.21754639 6.15236816 879.74759277 5.3293457 880.29370117 C4.57613037 880.77814697 3.82291504 881.26259277 3.046875 881.76171875 C2.38526367 882.19444092 1.72365234 882.62716309 1.04199219 883.07299805 C-1.53547631 884.24308986 -3.19179435 884.32793993 -6 884 C-8.25732422 882.96533203 -8.25732422 882.96533203 -10.5546875 881.5078125 C-11.40885254 880.97285156 -12.26301758 880.43789063 -13.14306641 879.88671875 C-14.04460449 879.30535156 -14.94614258 878.72398437 -15.875 878.125 C-17.28338135 877.23361328 -17.28338135 877.23361328 -18.72021484 876.32421875 C-21.48978554 874.56395854 -24.24737904 872.78662626 -27 871 C-27.70576172 870.54206055 -28.41152344 870.08412109 -29.13867188 869.61230469 C-32.80207696 867.22190475 -36.43400809 864.78790912 -40.04980469 862.32617188 C-42.18768935 860.87236748 -44.33215989 859.42854593 -46.4765625 857.984375 C-74.56485826 838.99584004 -101.55006774 818.19183163 -126.53515625 795.25 C-128.58115954 793.38233297 -130.65017157 791.55630403 -132.75 789.75 C-143.92383359 779.98125926 -154.49805252 769.60380238 -165 759.125 C-165.54220184 758.58538635 -166.08440369 758.04577271 -166.64303589 757.48980713 C-172.10912692 752.04430148 -177.51172657 746.5861812 -182.52832031 740.71679688 C-184.73867716 738.13829167 -187.06018852 735.67262043 -189.375 733.1875 C-193.63381693 728.57797412 -197.6613046 723.83159356 -201.59765625 718.94140625 C-204.96494261 714.81853368 -208.4425966 710.79362215 -211.92749023 706.77001953 C-213.29396626 705.18740215 -214.64884439 703.5956965 -216 702 C-216.61101562 701.28714844 -217.22203125 700.57429687 -217.8515625 699.83984375 C-219 698 -219 698 -219 694 C-218.4423999 693.68361572 -217.8847998 693.36723145 -217.31030273 693.04125977 C-207.75065917 687.61185358 -198.19822324 682.17905764 -188.78979492 676.49072266 C-183.46379052 673.27113987 -178.11009328 670.0999741 -172.75 666.9375 C-164.43286748 662.02862467 -156.12039042 657.11200264 -147.8125 652.1875 C-146.68038086 651.5164624 -145.54826172 650.8454248 -144.38183594 650.15405273 C-142.07304855 648.78553385 -139.76429921 647.4169508 -137.45556641 646.04833984 C-130.68327572 642.03383148 -123.91014738 638.02073638 -117.13720703 634.00732422 C-112.02767418 630.97953521 -106.91821345 627.95162494 -101.80917358 624.92300415 C-90.87658804 618.4422199 -79.9429467 611.96327818 -69 605.5 C-60.89408353 600.71128999 -52.78918126 595.9208725 -44.6875 591.125 C-43.00732788 590.13113281 -43.00732788 590.13113281 -41.29321289 589.1171875 C-35.44533275 585.65302029 -29.61113721 582.16863673 -23.796875 578.6484375 C-22.63322679 577.94513752 -21.46957131 577.24184955 -20.3059082 576.53857422 C-18.09897101 575.20292693 -15.89429029 573.86354241 -13.69213867 572.52001953 C-12.70963135 571.92560059 -11.72712402 571.33118164 -10.71484375 570.71875 C-9.41728149 569.92887695 -9.41728149 569.92887695 -8.09350586 569.12304688 C-6 568 -6 568 -4 568 C-4 534.01 -4 500.02 -4 465 C-19.19182271 473.4399015 -34.2567364 481.87008003 -49.2265625 490.66015625 C-55.72376252 494.44636514 -62.32182968 498.03508658 -68.9362793 501.61108398 C-77.73171229 506.37340456 -86.40809418 511.33161858 -95.07714844 516.31933594 C-100.63026128 519.5124222 -106.18969306 522.6944643 -111.75 525.875 C-112.63930206 526.38392792 -112.63930206 526.38392792 -113.54656982 526.90313721 C-122.94379621 532.27922189 -132.382547 537.57729687 -141.84008789 542.84667969 C-149.00809489 546.85278332 -156.10851806 550.96391898 -163.1875 555.125 C-171.68591333 560.11844928 -180.26539487 564.92326492 -188.93579102 569.61083984 C-197.73141149 574.37319659 -206.40793684 579.33152805 -215.07714844 584.31933594 C-225.37037783 590.23802882 -235.68091187 596.12652802 -246 602 C-246.59772217 602.34041321 -247.19544434 602.68082642 -247.8112793 603.03155518 C-251.86949485 605.34188346 -255.9334145 607.64192381 -260 609.9375 C-261.05026367 610.53481934 -262.10052734 611.13213867 -263.18261719 611.74755859 C-264.15360352 612.2936377 -265.12458984 612.8397168 -266.125 613.40234375 C-266.97320312 613.88179443 -267.82140625 614.36124512 -268.6953125 614.85522461 C-270.81566465 615.90843767 -272.68721832 616.53937542 -275 617 C-300.38380712 574.36419993 -321.96433886 530.30243499 -339.3125 483.8125 C-339.59562042 483.05684753 -339.87874084 482.30119507 -340.17044067 481.52264404 C-340.9708973 479.37828373 -341.7626621 477.23095268 -342.55078125 475.08203125 C-343.00106689 473.85718018 -343.45135254 472.6323291 -343.9152832 471.37036133 C-344.92456986 468.23437162 -345.55786332 465.25924117 -346 462 C-335.39235829 455.37522753 -324.62726431 449.02479822 -313.85107422 442.67919922 C-305.5611554 437.79667981 -297.28026744 432.89886318 -289 428 C-288.41436279 427.6536853 -287.82872559 427.30737061 -287.2253418 426.95056152 C-282.60707494 424.21954678 -277.99029016 421.48604234 -273.375 418.75 C-272.69705383 418.34813477 -272.01910767 417.94626953 -271.32061768 417.53222656 C-260.90813552 411.35637272 -250.55151553 405.09343472 -240.21755981 398.78729248 C-233.21057994 394.51465766 -226.17736839 390.33319174 -218.9909668 386.37060547 C-213.01260412 383.05563739 -207.16578609 379.53008627 -201.3125 376 C-192.11985984 370.45640024 -182.89229145 364.98002502 -173.625 359.5625 C-160.76349806 352.04190011 -147.94049278 344.45869782 -135.12792969 336.85498047 C-130.31754971 334.00224342 -125.50287619 331.15679313 -120.6875 328.3125 C-119.79877197 327.7875293 -118.91004395 327.26255859 -117.99438477 326.72167969 C-116.21942915 325.67329226 -114.44444559 324.62495214 -112.66943359 323.57666016 C-108.11251506 320.88518587 -103.55629881 318.19252321 -99 315.5 C-97.16666991 314.41666119 -95.33333658 313.33332785 -93.5 312.25 C-92.5925 311.71375 -91.685 311.1775 -90.75 310.625 C-80.66666667 304.66666667 -70.58333333 298.70833333 -60.5 292.75 C-59.13814575 291.94526245 -59.13814575 291.94526245 -57.7487793 291.12426758 C-55.91952794 290.04335371 -54.09026366 288.9624617 -52.26098633 287.8815918 C-47.61509136 285.13642187 -42.96943701 282.39084614 -38.32421875 279.64453125 C-37.37998047 279.08636719 -36.43574219 278.52820313 -35.46289062 277.953125 C-33.70759518 276.91551193 -31.95237687 275.87776836 -30.19726562 274.83984375 C-29.37291016 274.35257812 -28.54855469 273.8653125 -27.69921875 273.36328125 C-26.88756256 272.85504318 -26.07590637 272.34680511 -25.23965454 271.82316589 C-22.72637476 270.40877867 -20.45010512 269.3558951 -17.79074097 268.3105011 C-9.38845985 264.7190015 -9.38845985 264.7190015 -4.0303669 257.69510078 C-2.49451419 250.71616302 -2.90306161 243.58887326 -3.12109375 236.4921875 C-3.13037328 234.19721241 -3.13213587 231.90219572 -3.12672424 229.60720825 C-3.13259716 223.59110774 -3.24000399 217.58101604 -3.36914062 211.56646729 C-3.48296823 205.41967486 -3.50001705 199.27268131 -3.52539062 193.125 C-3.58927538 181.0811897 -3.76051236 169.04150955 -4 157 C-16.30976534 163.94786921 -28.61395879 170.90393198 -40.875 177.9375 C-49.80365304 183.05379577 -58.76032395 188.11645611 -67.75 193.125 C-75.95403639 197.6959036 -84.09122779 202.36594778 -92.1875 207.125 C-100.68591333 212.11844928 -109.26539487 216.92326492 -117.93579102 221.61083984 C-126.73141149 226.37319659 -135.40793684 231.33152805 -144.07714844 236.31933594 C-149.63026128 239.5124222 -155.18969306 242.6944643 -160.75 245.875 C-161.34286804 246.21428528 -161.93573608 246.55357056 -162.54656982 246.90313721 C-171.94379621 252.27922189 -181.382547 257.57729687 -190.84008789 262.84667969 C-198.00809489 266.85278332 -205.10851806 270.96391898 -212.1875 275.125 C-220.68079966 280.11544462 -229.25458359 284.9184479 -237.92041016 289.60205078 C-246.83344554 294.42680279 -255.62500121 299.45335681 -264.40869141 304.50878906 C-277.46003595 312.01939887 -290.55575365 319.44559708 -303.70214844 326.78857422 C-311.1687017 330.96308761 -318.60342882 335.18990931 -326.02270508 339.44775391 C-334.07986993 344.063926 -342.18449695 348.59415891 -350.30078125 353.10546875 C-355.91393147 356.23447024 -361.42655358 359.45055978 -366.8371582 362.92041016 C-369 364 -369 364 -373 364 C-379.50428697 331.59568413 -383.55321412 298.94700086 -386 266 C-386.07202637 265.05576172 -386.14405273 264.11152344 -386.21826172 263.13867188 C-387.30094322 248.446368 -387.1029809 233.72309974 -387 219 C-385.40885417 218.08203125 -383.81770833 217.1640625 -382.2265625 216.24609375 C-380.66832764 215.34709351 -380.66832764 215.34709351 -379.07861328 214.42993164 C-376.74109133 213.08138671 -374.40353227 211.73290632 -372.06591797 210.38452148 C-366.19915714 207.00032899 -360.33297885 203.61514162 -354.46875 200.2265625 C-342.69603959 193.4258396 -330.90577681 186.65740608 -319.09527588 179.92263794 C-311.03736788 175.32605777 -303.00582214 170.6867584 -295 166 C-285.22497235 160.27751551 -275.40213044 154.6415656 -265.5625 149.03125 C-257.6946253 144.54444226 -249.84182692 140.032213 -242 135.5 C-229.53410609 128.29765182 -217.03638632 121.15170254 -204.53222656 114.01611328 C-201.01819321 112.01064186 -197.50505031 110.00361469 -193.9921875 107.99609375 C-193.41499969 107.66624985 -192.83781189 107.33640594 -192.24313354 106.99656677 C-189.33175915 105.33274641 -186.42048712 103.66874706 -183.50927734 102.00463867 C-178.22345569 98.98338402 -172.93700121 95.96326478 -167.64736938 92.94868469 C-155.04058593 85.76394348 -142.45725704 78.54265135 -129.93212891 71.21606445 C-117.22589221 63.7853259 -104.4640577 56.45096024 -91.70898438 49.10449219 C-79.13975843 41.86393096 -66.58486454 34.60045864 -54.06054688 27.2824707 C-45.40922724 22.23087095 -36.74258292 17.20594445 -28.05395508 12.21875 C-23.4873915 9.59753344 -18.92731228 6.97391197 -14.42578125 4.2421875 C-13.77754395 3.85401855 -13.12930664 3.46584961 -12.46142578 3.06591797 C-10.84699979 2.09584037 -9.24134727 1.11119934 -7.63671875 0.125 C-4.41751728 -1.24852596 -3.32874315 -0.94270103 0 0 Z " fill="#3A6BB8" transform="translate(497,75)"/>
<path d="M0 0 C3.79445723 1.51778289 6.97246833 3.02900836 10.47265625 5.0546875 C11.52638428 5.66304443 12.5801123 6.27140137 13.66577148 6.89819336 C14.78669189 7.55053955 15.9076123 8.20288574 17.0625 8.875 C18.24091248 9.5581178 19.41937993 10.24114078 20.59790039 10.92407227 C29.03725737 15.82267364 37.41890112 20.81376588 45.7734375 25.85546875 C51.85037254 29.5197453 57.95611725 33.13507711 64.0625 36.75 C64.91379486 37.2540033 64.91379486 37.2540033 65.7822876 37.76818848 C68.099814 39.14023229 70.41741899 40.51214313 72.73519897 41.88375854 C76.80885725 44.29449099 80.88136623 46.70715453 84.953125 49.12109375 C95.29818599 55.25400352 105.64488093 61.38408489 116 67.5 C127.52199839 74.30509452 139.03343545 81.12798111 150.54443359 87.95166016 C156.19590084 91.30176185 161.8479973 94.6508018 167.5 98 C169.75000264 99.33332887 172.00000264 100.66666221 174.25 102 C175.36375 102.66 176.4775 103.32 177.625 104 C187.75 110 187.75 110 191.12451172 111.99975586 C193.37608646 113.33399221 195.62771412 114.66813925 197.87939453 116.00219727 C203.48073697 119.32098659 209.08117163 122.64128816 214.6796875 125.96484375 C216.91137825 127.28919746 219.14314923 128.61341599 221.375 129.9375 C222.48069336 130.59347168 223.58638672 131.24944336 224.72558594 131.92529297 C230.58602015 135.3979859 236.45418285 138.85654666 242.3359375 142.29296875 C243.25532356 142.83017548 243.25532356 142.83017548 244.19328308 143.37823486 C244.80617691 143.7363324 245.41907074 144.09442993 246.05053711 144.46337891 C259.79402405 152.49335761 273.44060338 160.66146229 287 169 C286.41585539 172.72992053 285.37704771 175.50504094 283.515625 178.78125 C282.99911377 179.69519531 282.48260254 180.60914063 281.95043945 181.55078125 C281.38929443 182.52402344 280.82814941 183.49726562 280.25 184.5 C279.38024536 186.02173828 279.38024536 186.02173828 278.49291992 187.57421875 C257.42224948 224.19413986 233.15508736 259.73025753 205.67578125 291.85546875 C203.11753374 294.84947693 200.614762 297.88619964 198.125 300.9375 C197.39925781 301.81792969 196.67351562 302.69835937 195.92578125 303.60546875 C194.75883491 305.05645882 193.62141617 306.53285928 192.54296875 308.05078125 C191.3125 309.75 191.3125 309.75 189 312 C184.37071882 311.72477181 181.12781572 310.21588804 177.16796875 307.89453125 C176.05252686 307.24782471 174.93708496 306.60111816 173.7878418 305.93481445 C172.58772646 305.22737869 171.38761256 304.51994048 170.1875 303.8125 C168.29884749 302.71338517 166.40826138 301.61764512 164.51765442 300.52189636 C163.23039423 299.77543145 161.9437666 299.02787469 160.65776062 298.2792511 C154.54020611 294.71983812 148.37047953 291.25689732 142.1875 287.8125 C140.12484215 286.66043882 138.06234073 285.50809752 136 284.35546875 C134.49953125 283.51701416 134.49953125 283.51701416 132.96875 282.66162109 C119.04433818 274.86807283 105.1818887 266.96618197 91.33432007 259.03717041 C82.06542442 253.73158661 72.76049628 248.49317546 63.43408203 243.28930664 C54.54744891 238.32365993 45.70640503 233.28020026 36.88085938 228.20703125 C24.97420184 221.37617818 12.98295865 214.69577807 1 208 C0.32480577 221.00228008 -0.18869773 234.00033603 -0.50255299 247.01663876 C-0.65330802 253.0635735 -0.85710277 259.09844494 -1.18774414 265.13842773 C-3.96286146 290.63534073 -3.96286146 290.63534073 3.71542358 313.78192139 C10.0189768 319.86619493 18.01619577 322.86152888 26.18649292 325.57987976 C32.61327582 327.81262967 38.20714552 331.64831381 43.9375 335.25 C46.16184938 336.58715262 48.39696895 337.90469763 50.6328125 339.22265625 C51.70176758 339.85703613 52.77072266 340.49141602 53.87207031 341.14501953 C61.34498805 345.57674206 68.82760566 349.99207639 76.30859375 354.41015625 C79.09151708 356.05406016 81.87394787 357.69879497 84.65625 359.34375 C85.59404297 359.89796631 86.53183594 360.45218262 87.49804688 361.02319336 C89.35156452 362.11925771 91.20444604 363.21639861 93.05664062 364.31469727 C97.39581837 366.88508582 101.74438566 369.43437541 106.125 371.93359375 C106.91865967 372.38968018 107.71231934 372.8457666 108.5300293 373.31567383 C110.01154716 374.16553802 111.49718855 375.00826881 112.98754883 375.8425293 C117.88809161 378.66427483 117.88809161 378.66427483 119 382 C118.36835937 382.51046875 117.73671875 383.0209375 117.0859375 383.546875 C112.29344227 387.44164058 107.54732672 391.37138424 102.88110352 395.41601562 C96.40941413 401.02307363 89.78696299 406.36540477 82.94824219 411.52001953 C80.71639824 413.21543783 78.50269923 414.93322411 76.2890625 416.65234375 C59.19912774 429.87733654 41.41695323 441.99323904 23.19189453 453.59375 C20.75061848 455.15999527 18.32669702 456.7514475 15.90234375 458.34375 C14.18515008 459.458725 12.46770706 460.57331608 10.75 461.6875 C9.95118408 462.21754639 9.15236816 462.74759277 8.3293457 463.29370117 C7.19952271 464.02036987 7.19952271 464.02036987 6.046875 464.76171875 C5.38526367 465.19444092 4.72365234 465.62716309 4.04199219 466.07299805 C1.46452369 467.24308986 -0.19179435 467.32793993 -3 467 C-5.25732422 465.96533203 -5.25732422 465.96533203 -7.5546875 464.5078125 C-8.40885254 463.97285156 -9.26301758 463.43789063 -10.14306641 462.88671875 C-11.04460449 462.30535156 -11.94614258 461.72398437 -12.875 461.125 C-13.8139209 460.53074219 -14.7528418 459.93648437 -15.72021484 459.32421875 C-18.48978554 457.56395854 -21.24737904 455.78662626 -24 454 C-24.70576172 453.54206055 -25.41152344 453.08412109 -26.13867188 452.61230469 C-29.80207696 450.22190475 -33.43400809 447.78790912 -37.04980469 445.32617188 C-39.18768935 443.87236748 -41.33215989 442.42854593 -43.4765625 440.984375 C-71.56485826 421.99584004 -98.55006774 401.19183163 -123.53515625 378.25 C-125.58115954 376.38233297 -127.65017157 374.55630403 -129.75 372.75 C-140.92383359 362.98125926 -151.49805252 352.60380238 -162 342.125 C-162.54220184 341.58538635 -163.08440369 341.04577271 -163.64303589 340.48980713 C-169.10912692 335.04430148 -174.51172657 329.5861812 -179.52832031 323.71679688 C-181.73867716 321.13829167 -184.06018852 318.67262043 -186.375 316.1875 C-190.63381693 311.57797412 -194.6613046 306.83159356 -198.59765625 301.94140625 C-201.96494261 297.81853368 -205.4425966 293.79362215 -208.92749023 289.77001953 C-210.29396626 288.18740215 -211.64884439 286.5956965 -213 285 C-213.61101562 284.28714844 -214.22203125 283.57429688 -214.8515625 282.83984375 C-216 281 -216 281 -216 277 C-215.4423999 276.68361572 -214.8847998 276.36723145 -214.31030273 276.04125977 C-204.75065917 270.61185358 -195.19822324 265.17905764 -185.78979492 259.49072266 C-180.46379052 256.27113987 -175.11009328 253.0999741 -169.75 249.9375 C-161.43286748 245.02862467 -153.12039042 240.11200264 -144.8125 235.1875 C-143.68038086 234.5164624 -142.54826172 233.8454248 -141.38183594 233.15405273 C-139.07304855 231.78553385 -136.76429921 230.4169508 -134.45556641 229.04833984 C-127.68327572 225.03383148 -120.91014738 221.02073638 -114.13720703 217.00732422 C-109.02767418 213.97953521 -103.91821345 210.95162494 -98.80917358 207.92300415 C-87.87658804 201.4422199 -76.9429467 194.96327818 -66 188.5 C-57.89408353 183.71128999 -49.78918126 178.9208725 -41.6875 174.125 C-40.56738525 173.46242188 -39.44727051 172.79984375 -38.29321289 172.1171875 C-32.44533275 168.65302029 -26.61113721 165.16863673 -20.796875 161.6484375 C-19.63322679 160.94513752 -18.46957131 160.24184955 -17.3059082 159.53857422 C-15.09897101 158.20292693 -12.89429029 156.86354241 -10.69213867 155.52001953 C-9.70963135 154.92560059 -8.72712402 154.33118164 -7.71484375 153.71875 C-6.84980225 153.19216797 -5.98476074 152.66558594 -5.09350586 152.12304688 C-3 151 -3 151 -1 151 C-1 117.01 -1 83.02 -1 48 C-1.66 47.67 -2.32 47.34 -3 47 C-2.01 46.67 -1.02 46.34 0 46 C0 30.82 0 15.64 0 0 Z " fill="#2D3F96" transform="translate(494,492)"/>
<path d="M0 0 C0.11670959 26.13800647 0.20492756 52.275974 0.25906086 78.41418839 C0.28486199 90.55013988 0.32004913 102.68592964 0.37719727 114.82177734 C0.42697361 125.39719331 0.45927711 135.97249218 0.47044247 146.54802203 C0.47697097 152.14972854 0.49235465 157.75109998 0.52865028 163.35269928 C0.56251845 168.62221772 0.57307147 173.8912622 0.56553841 179.16087914 C0.56691706 181.09751903 0.57690399 183.03417433 0.59602737 184.97072029 C0.62082232 187.61048214 0.61495543 190.2484431 0.60127258 192.88824463 C0.61583679 193.65867387 0.630401 194.42910311 0.64540654 195.22287869 C0.59180755 199.03543059 0.35657551 200.63823494 -2.36625385 203.40069199 C-3.23539008 203.92846363 -4.10452631 204.45623528 -5 205 C-5.90459961 205.56122559 -6.80919922 206.12245117 -7.74121094 206.70068359 C-8.72895508 207.26094238 -9.71669922 207.82120117 -10.734375 208.3984375 C-12.41225098 209.35387451 -12.41225098 209.35387451 -14.12402344 210.32861328 C-15.33262296 211.0108473 -16.54128337 211.69297347 -17.75 212.375 C-19.00832022 213.08936015 -20.26645557 213.80404602 -21.52441406 214.51904297 C-30.60310988 219.67264752 -39.71698669 224.76319747 -48.83618164 229.84472656 C-56.0056903 233.85113296 -63.10726362 237.9631816 -70.1875 242.125 C-78.68591333 247.11844928 -87.26539487 251.92326492 -95.93579102 256.61083984 C-104.73141149 261.37319659 -113.40793684 266.33152805 -122.07714844 271.31933594 C-127.63026128 274.5124222 -133.18969306 277.6944643 -138.75 280.875 C-139.34286804 281.21428528 -139.93573608 281.55357056 -140.54656982 281.90313721 C-149.94379621 287.27922189 -159.382547 292.57729687 -168.84008789 297.84667969 C-176.00809489 301.85278332 -183.10851806 305.96391898 -190.1875 310.125 C-198.67939153 315.11461724 -207.25186796 319.91659331 -215.91601562 324.59985352 C-222.21788903 328.01147514 -228.46795446 331.50305925 -234.6875 335.0625 C-235.54585449 335.55153809 -236.40420898 336.04057617 -237.28857422 336.54443359 C-241.64866764 339.0386283 -245.97193405 341.5793619 -250.2578125 344.19921875 C-251.53265503 344.96770142 -251.53265503 344.96770142 -252.83325195 345.75170898 C-254.43459871 346.71945542 -256.02763645 347.7011492 -257.61010742 348.69946289 C-262.62534593 351.71263026 -266.14917721 353.24382817 -272 352 C-274.39577205 349.63498907 -275.75292271 346.86533925 -277.25 343.875 C-277.70544189 343.02768311 -278.16088379 342.18036621 -278.63012695 341.30737305 C-279.60449659 339.49030534 -280.56611301 337.6663522 -281.51611328 335.83642578 C-282.99970186 333.0005699 -284.53433932 330.19932141 -286.08984375 327.40234375 C-291.58424355 317.51069495 -296.90054658 307.54502212 -301.84521484 297.3671875 C-303.20368197 294.58247348 -304.58145957 291.80755362 -305.95703125 289.03125 C-317.04005504 266.51264429 -326.44493713 243.42332124 -335.25 219.9375 C-335.54084473 219.16639893 -335.83168945 218.39529785 -336.13134766 217.60083008 C-336.95439914 215.41235729 -337.76789879 213.22059234 -338.578125 211.02734375 C-338.82435608 210.37450912 -339.07058716 209.7216745 -339.32427979 209.04905701 C-340.52165977 205.77032906 -341 203.55652456 -341 200 C-340.13503906 199.52433594 -339.27007812 199.04867187 -338.37890625 198.55859375 C-328.71398182 193.20160694 -319.22969979 187.56989503 -309.76782227 181.86303711 C-302.54700579 177.51328416 -295.29082307 173.23124906 -288 169 C-278.68711969 163.59207722 -269.43739192 158.08606653 -260.21044922 152.53295898 C-250.81692502 146.88146925 -241.38149763 141.30310355 -231.93847656 135.73486328 C-226.45464663 132.49723487 -220.97776763 129.24787055 -215.5 126 C-206.45367183 120.63697174 -197.40297185 115.28143109 -188.34765625 109.93359375 C-181.06101328 105.62929231 -173.779939 101.31562798 -166.5 97 C-157.4535553 91.63716799 -148.40297218 86.28143129 -139.34765625 80.93359375 C-132.06101322 76.62929228 -124.77995717 72.31559738 -117.5 68 C-106.56205429 61.51609376 -95.61796319 55.04267607 -84.66943359 48.57666016 C-80.11251507 45.88518587 -75.55629082 43.19253672 -71 40.5 C-65.55892255 37.28459927 -60.11773144 34.06939225 -54.67578125 30.85546875 C-50.13262852 28.17219767 -45.59021479 25.48767946 -41.04833984 22.80224609 C-38.87693875 21.51846563 -36.70538873 20.23493925 -34.53369141 18.95166016 C-31.49399601 17.15533071 -28.45498021 15.35785578 -25.41635132 13.5597229 C-23.67289489 12.52833353 -21.9288627 11.49791761 -20.18481445 10.4675293 C-19.10546631 9.82855713 -18.02611816 9.18958496 -16.9140625 8.53125 C-15.89473633 7.92796875 -14.87541016 7.3246875 -13.82519531 6.703125 C-11.31663225 5.19087682 -8.85541922 3.62520989 -6.3984375 2.03125 C-3 0 -3 0 0 0 Z " fill="#2983CD" transform="translate(494,337)"/>
<path d="M0 0 C-0.33 51.48 -0.66 102.96 -1 156 C-1.99 156.33 -2.98 156.66 -4 157 C-4.33 157.99 -4.66 158.98 -5 160 C-7.44238281 161.61889648 -7.44238281 161.61889648 -10.703125 163.37109375 C-11.288022 163.68917496 -11.87291901 164.00725616 -12.47554016 164.3349762 C-13.73685934 165.01965082 -15.00049189 165.70007714 -16.2661438 166.37670898 C-18.94392909 167.80855197 -21.61036906 169.26093527 -24.27760315 170.71231079 C-25.62325573 171.4442951 -26.96948022 172.175229 -28.31626892 172.90512085 C-33.77362959 175.86459952 -39.18151871 178.90367213 -44.5625 182 C-45.79033203 182.70491577 -45.79033203 182.70491577 -47.04296875 183.42407227 C-48.7590126 184.40997246 -50.47466004 185.3965629 -52.18994141 186.38378906 C-57.70517194 189.55588516 -63.22727637 192.71597474 -68.75 195.875 C-69.3435025 196.21464783 -69.937005 196.55429565 -70.54849243 196.90423584 C-79.9450776 202.27995443 -89.38319204 207.57765626 -98.84008789 212.84667969 C-106.00809489 216.85278332 -113.10851806 220.96391898 -120.1875 225.125 C-128.68591333 230.11844928 -137.26539487 234.92326492 -145.93579102 239.61083984 C-154.73141149 244.37319659 -163.40793684 249.33152805 -172.07714844 254.31933594 C-177.63026128 257.5124222 -183.18969306 260.6944643 -188.75 263.875 C-189.34286804 264.21428528 -189.93573608 264.55357056 -190.54656982 264.90313721 C-198.92026098 269.69366485 -207.32278008 274.42906745 -215.75 279.125 C-225.01453067 284.28759906 -234.18791075 289.59056616 -243.33300781 294.96142578 C-250.29907268 299.04043613 -257.33536153 302.96477861 -264.42749023 306.81933594 C-270.98512294 310.40037589 -277.43507979 314.14952359 -283.875 317.9375 C-292.42848184 322.96450444 -301.05569897 327.81517258 -309.78295898 332.53320312 C-319.26763506 337.66602666 -328.64450083 342.98338959 -338.02099609 348.31054688 C-341.16332669 350.09262586 -344.30965147 351.86747989 -347.45703125 353.640625 C-348.51027588 354.23431885 -349.56352051 354.8280127 -350.64868164 355.43969727 C-352.67479535 356.58154943 -354.70130821 357.72269372 -356.72827148 358.86303711 C-357.63778564 359.37616455 -358.5472998 359.88929199 -359.484375 360.41796875 C-360.68658691 361.09508911 -360.68658691 361.09508911 -361.91308594 361.78588867 C-363.64678409 362.79450834 -365.33111723 363.88741148 -367 365 C-368.32 365 -369.64 365 -371 365 C-377.50428697 332.59568413 -381.55321412 299.94700086 -384 267 C-384.07202637 266.05576172 -384.14405273 265.11152344 -384.21826172 264.13867188 C-385.30094322 249.446368 -385.1029809 234.72309974 -385 220 C-383.40885417 219.08203125 -381.81770833 218.1640625 -380.2265625 217.24609375 C-378.66832764 216.34709351 -378.66832764 216.34709351 -377.07861328 215.42993164 C-374.74109133 214.08138671 -372.40353227 212.73290632 -370.06591797 211.38452148 C-364.19915714 208.00032899 -358.33297885 204.61514162 -352.46875 201.2265625 C-340.69603959 194.4258396 -328.90577681 187.65740608 -317.09527588 180.92263794 C-309.03736788 176.32605777 -301.00582214 171.6867584 -293 167 C-283.22497235 161.27751551 -273.40213044 155.6415656 -263.5625 150.03125 C-255.6946253 145.54444226 -247.84182692 141.032213 -240 136.5 C-227.53410609 129.29765182 -215.03638632 122.15170254 -202.53222656 115.01611328 C-199.01819321 113.01064186 -195.50505031 111.00361469 -191.9921875 108.99609375 C-191.41499969 108.66624985 -190.83781189 108.33640594 -190.24313354 107.99656677 C-187.33175915 106.33274641 -184.42048712 104.66874706 -181.50927734 103.00463867 C-176.22345569 99.98338402 -170.93700121 96.96326478 -165.64736938 93.94868469 C-153.04058593 86.76394348 -140.45725704 79.54265135 -127.93212891 72.21606445 C-115.22589221 64.7853259 -102.4640577 57.45096024 -89.70898438 50.10449219 C-77.13975843 42.86393096 -64.58486454 35.60045864 -52.06054688 28.2824707 C-42.34896016 22.61176945 -32.61183264 16.98579448 -22.86328125 11.37890625 C-19.35211668 9.35926954 -15.84773778 7.32946977 -12.35546875 5.27734375 C-11.69820801 4.89368652 -11.04094727 4.5100293 -10.36376953 4.11474609 C-8.72056703 3.15483789 -7.08079894 2.1890567 -5.44140625 1.22265625 C-3 0 -3 0 0 0 Z " fill="#0F9CDF" transform="translate(495,74)"/>
<path d="M0 0 C0 102.96 0 205.92 0 312 C-1.65 311.34 -3.3 310.68 -5 310 C-6.258125 309.67 -7.51625 309.34 -8.8125 309 C-16.54128781 306.46238134 -23.25301013 301.43290423 -30 297 C-31.55267578 295.98679687 -31.55267578 295.98679687 -33.13671875 294.953125 C-36.10726316 292.99167412 -39.05598473 291.00103938 -42 289 C-42.58152832 288.6076416 -43.16305664 288.2152832 -43.76220703 287.81103516 C-71.76081651 268.90849499 -98.64280889 248.10667477 -123.53515625 225.25 C-125.58115954 223.38233297 -127.65017157 221.55630403 -129.75 219.75 C-140.92383359 209.98125926 -151.49805252 199.60380238 -162 189.125 C-162.54220184 188.58538635 -163.08440369 188.04577271 -163.64303589 187.48980713 C-169.10912692 182.04430148 -174.51172657 176.5861812 -179.52832031 170.71679688 C-181.73867716 168.13829167 -184.06018852 165.67262043 -186.375 163.1875 C-190.83322086 158.37091868 -195.02756574 153.40666862 -199.125 148.27734375 C-200.87229448 146.04880185 -200.87229448 146.04880185 -202.625 144.50390625 C-204 143 -204 143 -204.8984375 140.66796875 C-206.2817471 137.31761253 -208.26711928 135.05587551 -210.625 132.3125 C-215 127.21293375 -215 127.21293375 -215 125 C-213.39898437 124.12601563 -213.39898437 124.12601563 -211.765625 123.234375 C-201.76627349 117.74473557 -191.93748787 112.02156939 -182.17578125 106.12109375 C-176.95001796 102.96268713 -171.69719295 99.85149209 -166.4375 96.75 C-164.58591241 95.65759462 -162.73435049 94.5651457 -160.8828125 93.47265625 C-159.93051758 92.91078613 -158.97822266 92.34891602 -157.99707031 91.77001953 C-152.59867625 88.58181841 -147.20570743 85.38446448 -141.8125 82.1875 C-140.66487682 81.50724197 -139.51725312 80.82698481 -138.36962891 80.14672852 C-136.63575813 79.11895668 -134.90189659 78.09116927 -133.1680603 77.06333923 C-129.24785895 74.73946374 -125.32717877 72.41639791 -121.40625 70.09375 C-108.47048624 62.43060124 -95.54002237 54.75861504 -82.6131897 47.08041382 C-73.57110184 41.70999652 -64.52323982 36.34958511 -55.46606445 31.00463867 C-49.95953217 27.75337304 -44.45862844 24.49274753 -38.9609375 21.2265625 C-38.25398743 20.80658997 -37.54703735 20.38661743 -36.81866455 19.95391846 C-33.31616691 17.87301755 -29.81406915 15.79144726 -26.3125 13.70898438 C-23.75149766 12.1860273 -21.18853747 10.66644935 -18.62402344 9.14941406 C-16.23475997 7.7357705 -13.85356795 6.30978775 -11.47753906 4.87402344 C-10.4047168 4.23239258 -9.33189453 3.59076172 -8.2265625 2.9296875 C-7.28635254 2.36233887 -6.34614258 1.79499023 -5.37744141 1.21044922 C-3 0 -3 0 0 0 Z " fill="#3671BF" transform="translate(494,645)"/>
<path d="M0 0 C12.38166705 6.75363657 12.38166705 6.75363657 16.55078125 9.19140625 C17.48486816 9.73676025 18.41895508 10.28211426 19.38134766 10.84399414 C20.34862793 11.41110107 21.3159082 11.97820801 22.3125 12.5625 C23.34938965 13.16892334 24.3862793 13.77534668 25.45458984 14.40014648 C35.08068393 20.03523651 44.6846777 25.70758102 54.28222656 31.39111328 C58.8530873 34.09700371 63.4266814 36.79826652 68 39.5 C73.55895549 42.7845446 79.11769468 46.06945395 84.67578125 49.35546875 C85.61075439 49.90799316 86.54572754 50.46051758 87.5090332 51.02978516 C89.35849388 52.1233877 91.20730435 53.2180907 93.05541992 54.31396484 C97.39499959 56.88460649 101.74397331 59.43414015 106.125 61.93359375 C106.91865967 62.38968018 107.71231934 62.8457666 108.5300293 63.31567383 C110.01154716 64.16553802 111.49718855 65.00826881 112.98754883 65.8425293 C117.88809161 68.66427483 117.88809161 68.66427483 119 72 C118.36835937 72.51046875 117.73671875 73.0209375 117.0859375 73.546875 C112.29344227 77.44164058 107.54732672 81.37138424 102.88110352 85.41601562 C96.40941413 91.02307363 89.78696299 96.36540477 82.94824219 101.52001953 C80.71639824 103.21543783 78.50269923 104.93322411 76.2890625 106.65234375 C59.19912774 119.87733654 41.41695323 131.99323904 23.19189453 143.59375 C20.75061848 145.15999527 18.32669702 146.7514475 15.90234375 148.34375 C14.18515008 149.458725 12.46770706 150.57331608 10.75 151.6875 C9.95118408 152.21754639 9.15236816 152.74759277 8.3293457 153.29370117 C7.57613037 153.77814697 6.82291504 154.26259277 6.046875 154.76171875 C5.38526367 155.19444092 4.72365234 155.62716309 4.04199219 156.07299805 C1.52947573 157.21360362 -0.26764922 157.23838552 -3 157 C-5.23828125 155.90625 -5.23828125 155.90625 -7.3125 154.5 C-8.00988281 154.0359375 -8.70726562 153.571875 -9.42578125 153.09375 C-10.20501953 152.55234375 -10.20501953 152.55234375 -11 152 C-9.4375 151.25 -9.4375 151.25 -7 151 C-4.69 152.32 -2.38 153.64 0 155 C0 103.85 0 52.7 0 0 Z " fill="#2A368C" transform="translate(494,802)"/>
<path d="M0 0 C0.99 0 1.98 0 3 0 C3.30146367 13.55150994 3.53232023 27.10222026 3.67355824 40.65640259 C3.74135475 46.95068943 3.83326703 53.24267969 3.98071289 59.53564453 C4.12217264 65.61128196 4.19973335 71.68471407 4.23340416 77.76187134 C4.25739056 80.07779675 4.30423677 82.39360379 4.37449074 84.70858765 C4.88902893 102.36900773 4.88902893 102.36900773 1.76514626 106.71987343 C-1.68843344 109.8762539 -5.64571974 111.36159092 -10 113 C-12.15632834 114.23679187 -14.29402988 115.50724544 -16.40234375 116.82421875 C-18.58003882 118.11314625 -20.75844344 119.40087557 -22.9375 120.6875 C-24.11814059 121.38572566 -25.29872215 122.08405114 -26.47924805 122.7824707 C-28.85717808 124.18900289 -31.23550896 125.59485306 -33.61425781 127 C-36.6989961 128.82219325 -39.78320046 130.64528568 -42.8671875 132.46875 C-47.35431402 135.12140905 -51.84228433 137.77263656 -56.33056641 140.42333984 C-60.88748493 143.11481413 -65.44370918 145.80746328 -70 148.5 C-75.44107745 151.71540073 -80.88226856 154.93060775 -86.32421875 158.14453125 C-96.96723475 164.43075707 -107.6044606 170.72667687 -118.23739624 177.02993774 C-126.70478284 182.04933168 -135.17672742 187.06092444 -143.65234375 192.06640625 C-150.93898672 196.37070769 -158.220061 200.68437202 -165.5 205 C-174.5464447 210.36283201 -183.59702782 215.71856871 -192.65234375 221.06640625 C-200.51677944 225.7120163 -208.37482021 230.36839283 -216.23171997 235.0267334 C-223.05113583 239.06992349 -229.87369791 243.10766016 -236.7019043 247.13598633 C-244.38093707 251.66664993 -252.0468076 256.21744679 -259.6875 260.8125 C-278.44069929 272.08728019 -297.29136967 283.1973331 -316.18139648 294.2409668 C-317.31907471 294.90652588 -318.45675293 295.57208496 -319.62890625 296.2578125 C-321.24756592 297.20382324 -321.24756592 297.20382324 -322.89892578 298.16894531 C-326.65756159 300.38826263 -330.37974069 302.66452518 -334.08959961 304.96435547 C-336 306 -336 306 -338 306 C-322.32844493 355.42155932 -300.04360823 402.39151434 -274.46875 447.38842773 C-273.56294267 448.99903627 -272.67375673 450.61928538 -271.8125 452.25415039 C-270.94808771 453.87719168 -269.98404875 455.44657807 -269 457 C-265.87311572 458.05175552 -265.87311572 458.05175552 -263 458 C-264.25 459.5625 -264.25 459.5625 -266 461 C-267.92431641 460.88061523 -267.92431641 460.88061523 -270 460 C-271.51708984 458.00415039 -271.51708984 458.00415039 -272.9609375 455.34765625 C-273.5075 454.35733398 -274.0540625 453.36701172 -274.6171875 452.34667969 C-275.19726562 451.26290039 -275.77734375 450.17912109 -276.375 449.0625 C-276.98859375 447.93875977 -277.6021875 446.81501953 -278.234375 445.65722656 C-279.5268735 443.28938622 -280.81092544 440.91723082 -282.08886719 438.54150391 C-283.88402436 435.20707272 -285.70904115 431.88966034 -287.5390625 428.57421875 C-305.37702572 396.09997802 -320.36672393 362.50483903 -333.3125 327.8125 C-333.59562042 327.05684753 -333.87874084 326.30119507 -334.17044067 325.52264404 C-334.9708973 323.37828373 -335.7626621 321.23095268 -336.55078125 319.08203125 C-337.00106689 317.85718018 -337.45135254 316.6323291 -337.9152832 315.37036133 C-338.92456986 312.23437162 -339.55786332 309.25924117 -340 306 C-329.39235829 299.37522753 -318.62726431 293.02479822 -307.85107422 286.67919922 C-299.5611554 281.79667981 -291.28026744 276.89886318 -283 272 C-282.41436279 271.6536853 -281.82872559 271.30737061 -281.2253418 270.95056152 C-276.60707494 268.21954678 -271.99029016 265.48604234 -267.375 262.75 C-266.69705383 262.34813477 -266.01910767 261.94626953 -265.32061768 261.53222656 C-254.90813552 255.35637272 -244.55151553 249.09343472 -234.21755981 242.78729248 C-227.21057994 238.51465766 -220.17736839 234.33319174 -212.9909668 230.37060547 C-207.01260412 227.05563739 -201.16578609 223.53008627 -195.3125 220 C-186.11985984 214.45640024 -176.89229145 208.98002502 -167.625 203.5625 C-154.76349806 196.04190011 -141.94049278 188.45869782 -129.12792969 180.85498047 C-124.31754971 178.00224342 -119.50287619 175.15679313 -114.6875 172.3125 C-113.79877197 171.7875293 -112.91004395 171.26255859 -111.99438477 170.72167969 C-110.21942915 169.67329226 -108.44444559 168.62495214 -106.66943359 167.57666016 C-102.11251506 164.88518587 -97.55629881 162.19252321 -93 159.5 C-91.16666991 158.41666119 -89.33333658 157.33332785 -87.5 156.25 C-86.13875 155.445625 -86.13875 155.445625 -84.75 154.625 C-74.66666667 148.66666667 -64.58333333 142.70833333 -54.5 136.75 C-53.13814575 135.94526245 -53.13814575 135.94526245 -51.7487793 135.12426758 C-49.91952794 134.04335371 -48.09026366 132.9624617 -46.26098633 131.8815918 C-41.61509136 129.13642187 -36.96943701 126.39084614 -32.32421875 123.64453125 C-31.37998047 123.08636719 -30.43574219 122.52820313 -29.46289062 121.953125 C-27.70759518 120.91551193 -25.95237687 119.87776836 -24.19726562 118.83984375 C-22.96073242 118.10894531 -22.96073242 118.10894531 -21.69921875 117.36328125 C-20.48173447 116.60092415 -20.48173447 116.60092415 -19.23965454 115.82316589 C-16.72637476 114.40877867 -14.45010512 113.3558951 -11.79074097 112.3105011 C-3.38845985 108.7190015 -3.38845985 108.7190015 1.9696331 101.69510078 C3.50548581 94.71616302 3.09693839 87.58887326 2.87890625 80.4921875 C2.86962672 78.19721241 2.86786413 75.90219572 2.87327576 73.60720825 C2.86740284 67.59110774 2.75999601 61.58101604 2.63085938 55.56646729 C2.51703177 49.41967486 2.49998295 43.27268131 2.47460938 37.125 C2.41072462 25.0811897 2.23948764 13.04150955 2 1 C1.34 0.67 0.68 0.34 0 0 Z " fill="#071622" transform="translate(491,231)"/>
<path d="M0 0 C4.25382409 1.28426207 7.81828752 2.90044958 11.61328125 5.203125 C12.68400879 5.84685059 13.75473633 6.49057617 14.85791016 7.15380859 C15.42052551 7.49530945 15.98314087 7.8368103 16.56280518 8.18865967 C19.56873759 10.0120161 22.58677111 11.81506677 25.60546875 13.6171875 C26.52996826 14.16948532 26.52996826 14.16948532 27.47314453 14.73294067 C33.62601083 18.39587429 39.86451788 21.89958641 46.125 25.375 C53.61099817 29.53536516 61.05499017 33.744306 68.4206543 38.11401367 C74.73110677 41.8548505 81.0812518 45.52509255 87.4375 49.1875 C88.54472412 49.82550537 89.65194824 50.46351074 90.79272461 51.12084961 C93.06337068 52.42889477 95.33412358 53.73675448 97.60498047 55.04443359 C103.07169976 58.19332051 108.53577005 61.34679599 114 64.5 C120.13710894 68.04121575 126.27437761 71.58215111 132.4133606 75.12011719 C134.80426597 76.49806938 137.19498672 77.87634172 139.58569336 79.25463867 C141.26983963 80.22540982 142.95425231 81.19571874 144.63867188 82.16601562 C145.66154297 82.75576172 146.68441406 83.34550781 147.73828125 83.953125 C148.63587158 84.47036133 149.53346191 84.98759766 150.45825195 85.52050781 C151.29702881 86.00874023 152.13580566 86.49697266 153 87 C153.92127686 87.45213867 154.84255371 87.90427734 155.79174805 88.37011719 C158 90 158 90 158.61523438 92.3203125 C158.60814453 93.24585938 158.60105469 94.17140625 158.59375 95.125 C158.59358887 96.20064209 158.59342773 97.27628418 158.59326172 98.38452148 C158.56248535 99.57762939 158.53170898 100.7707373 158.5 102 C158.4808252 103.27109619 158.46165039 104.54219238 158.44189453 105.85180664 C156.88747325 186.42871048 141.00538365 265.7613718 115.0625 341.875 C114.79345856 342.66733032 114.52441711 343.45966064 114.2472229 344.27600098 C111.24926339 353.06602516 108.08080489 361.63927138 104 370 C100.86763854 368.79652627 97.92754074 367.49534839 95.01171875 365.8359375 C93.95307617 365.23652344 93.95307617 365.23652344 92.87304688 364.625 C92.15181641 364.2125 91.43058594 363.8 90.6875 363.375 C89.57665039 362.74464844 89.57665039 362.74464844 88.44335938 362.1015625 C86.62730989 361.07051505 84.81343467 360.03563954 83 359 C86.45271225 357.83542834 86.84163542 357.9226464 90.3828125 359.65234375 C91.63762469 360.40178232 92.88486616 361.16401446 94.125 361.9375 C98.28385975 364.83108591 98.28385975 364.83108591 103 366 C129.40666451 296.67857142 146.48730067 224.93715034 153 151 C153.05951843 150.32900269 153.11903687 149.65800537 153.18035889 148.9666748 C154.87762713 129.61390138 155.2704474 110.40980164 155 91 C153.93193115 90.39079712 153.93193115 90.39079712 152.84228516 89.76928711 C130.51644483 77.03181144 108.22715842 64.23404096 86.03369141 51.2668457 C78.74348703 47.00994469 71.43841001 42.77939854 64.125 38.5625 C63.04549072 37.93988281 61.96598145 37.31726563 60.85375977 36.67578125 C55.39146022 33.52681619 49.92619564 30.3831208 44.45703125 27.24609375 C33.21243212 20.78977215 22.00823365 14.27132622 10.875 7.625 C9.7830835 6.97595703 8.69116699 6.32691406 7.56616211 5.65820312 C6.57237549 5.06201172 5.57858887 4.46582031 4.5546875 3.8515625 C3.67280762 3.32385254 2.79092773 2.79614258 1.88232422 2.25244141 C1.26115723 1.83913574 0.63999023 1.42583008 0 1 C0 0.67 0 0.34 0 0 Z " fill="#0F1732" transform="translate(719,204)"/>
<path d="M0 0 C3.70603952 1.38950277 7.04862185 3.07308102 10.47265625 5.0546875 C12.05324829 5.9672229 12.05324829 5.9672229 13.66577148 6.89819336 C15.3471521 7.87671265 15.3471521 7.87671265 17.0625 8.875 C18.24091248 9.5581178 19.41937993 10.24114078 20.59790039 10.92407227 C29.03725737 15.82267364 37.41890112 20.81376588 45.7734375 25.85546875 C51.85037254 29.5197453 57.95611725 33.13507711 64.0625 36.75 C64.63002991 37.0860022 65.19755981 37.42200439 65.7822876 37.76818848 C68.099814 39.14023229 70.41741899 40.51214313 72.73519897 41.88375854 C76.80885725 44.29449099 80.88136623 46.70715453 84.953125 49.12109375 C95.29818599 55.25400352 105.64488093 61.38408489 116 67.5 C127.52199839 74.30509452 139.03343545 81.12798111 150.54443359 87.95166016 C156.19590084 91.30176185 161.8479973 94.6508018 167.5 98 C169.75000264 99.33332887 172.00000264 100.66666221 174.25 102 C175.36375 102.66 176.4775 103.32 177.625 104 C187.75 110 187.75 110 191.12451172 111.99975586 C193.37608646 113.33399221 195.62771412 114.66813925 197.87939453 116.00219727 C203.48073697 119.32098659 209.08117163 122.64128816 214.6796875 125.96484375 C216.91137825 127.28919746 219.14314923 128.61341599 221.375 129.9375 C222.48069336 130.59347168 223.58638672 131.24944336 224.72558594 131.92529297 C230.58602015 135.3979859 236.45418285 138.85654666 242.3359375 142.29296875 C243.25532356 142.83017548 243.25532356 142.83017548 244.19328308 143.37823486 C244.80617691 143.7363324 245.41907074 144.09442993 246.05053711 144.46337891 C259.79402405 152.49335761 273.44060338 160.66146229 287 169 C286.41585539 172.72992053 285.37704771 175.50504094 283.515625 178.78125 C282.99911377 179.69519531 282.48260254 180.60914063 281.95043945 181.55078125 C281.38929443 182.52402344 280.82814941 183.49726562 280.25 184.5 C279.38024536 186.02173828 279.38024536 186.02173828 278.49291992 187.57421875 C257.42224948 224.19413986 233.15508736 259.73025753 205.67578125 291.85546875 C203.11753374 294.84947693 200.614762 297.88619964 198.125 300.9375 C197.03638672 302.25814453 197.03638672 302.25814453 195.92578125 303.60546875 C194.75883491 305.05645882 193.62141617 306.53285928 192.54296875 308.05078125 C191.3125 309.75 191.3125 309.75 189 312 C185.50839909 312.06983202 183.81084593 311.67570494 181.125 309.4375 C180.568125 308.7259375 180.568125 308.7259375 180 308 C183.02419525 308.58803797 186.01758453 309.22678118 189 310 C189.27312012 309.40848145 189.54624023 308.81696289 189.82763672 308.20751953 C190.9649125 306.06606855 192.15280232 304.48592604 193.7578125 302.6796875 C194.29656006 302.06762451 194.83530762 301.45556152 195.39038086 300.82495117 C196.24901733 299.85972534 196.24901733 299.85972534 197.125 298.875 C198.31772826 297.5154816 199.50913885 296.15480604 200.69921875 294.79296875 C201.27333496 294.13603027 201.84745117 293.4790918 202.43896484 292.80224609 C205.75791549 288.97045165 208.88198652 284.99547215 212 281 C213.05837965 279.66128904 214.11699522 278.32276458 215.17578125 276.984375 C222.64466467 267.50427912 229.76049545 257.84276614 236.64453125 247.93164062 C237.87856056 246.17305996 239.13391049 244.43409852 240.40625 242.703125 C253.41552258 224.9237858 264.84455735 205.98102761 276 187 C276.42345703 186.28618164 276.84691406 185.57236328 277.28320312 184.83691406 C278.44631724 182.87473503 279.60010554 180.90744804 280.75 178.9375 C281.70132813 177.31134766 281.70132813 177.31134766 282.671875 175.65234375 C284.22387014 173.04729891 284.22387014 173.04729891 284 170 C282.28258644 168.56582655 282.28258644 168.56582655 279.9609375 167.3203125 C279.08219971 166.81072998 278.20346191 166.30114746 277.2980957 165.77612305 C276.33347412 165.23125244 275.36885254 164.68638184 274.375 164.125 C272.33447526 162.94689194 270.29411497 161.768499 268.25390625 160.58984375 C266.68406982 159.69048096 266.68406982 159.69048096 265.08251953 158.77294922 C260.46806246 156.11888719 255.89076548 153.40334856 251.3125 150.6875 C249.47930772 149.603928 247.64597099 148.52060035 245.8125 147.4375 C236.59328246 141.98690637 227.38089295 136.52478175 218.16809082 131.06335449 C214.24787691 128.73947795 210.32718853 126.4164037 206.40625 124.09375 C188.24596803 113.33569823 170.096344 102.55974788 151.94812012 91.78137207 C147.19466392 88.95827352 142.44113765 86.135293 137.6875 83.3125 C136.68609482 82.71784439 136.68609482 82.71784439 135.66445923 82.11117554 C126.61240749 76.73610421 117.55759743 71.36572233 108.5 66 C98.76763427 60.23454481 89.03879889 54.46318231 79.3125 48.6875 C78.64529938 48.29130463 77.97809875 47.89510925 77.29067993 47.48690796 C71.84303694 44.25193652 66.39557544 41.01665951 60.94812012 37.78137207 C60.27140259 37.37946655 59.59468506 36.97756104 58.89746094 36.56347656 C57.88369133 35.9613887 57.88369133 35.9613887 56.84944153 35.34713745 C55.48740592 34.53826078 54.12533525 33.72944314 52.76322937 32.92068481 C49.41190154 30.93079073 46.06102353 28.94014859 42.71118164 26.94775391 C36.84113217 23.45777826 30.96746322 19.97480284 25.07234192 16.52729797 C22.55756755 15.0564615 20.04519478 13.58154811 17.53286743 12.10653687 C15.7988287 11.0910938 14.06096425 10.08219265 12.32299805 9.07348633 C11.28312744 8.4627124 10.24325684 7.85193848 9.171875 7.22265625 C8.2653418 6.69422119 7.35880859 6.16578613 6.42480469 5.62133789 C3.95444184 3.96953768 2.02204417 2.1689574 0 0 Z " fill="#060A18" transform="translate(494,492)"/>
<path d="M0 0 C1.97776721 2.96665082 2.99450877 5.48771824 4.1796875 8.8359375 C4.82164062 10.62813721 4.82164062 10.62813721 5.4765625 12.45654297 C5.70375977 13.09412537 5.93095703 13.73170776 6.16503906 14.38861084 C16.57736701 43.52110854 28.62886611 72.10714662 42.78173828 99.62988281 C43.69479365 101.40622381 44.60398487 103.18455191 45.51123047 104.96386719 C49.61460757 113.00768438 53.78150554 121.01598057 58 129 C58.56396484 130.07362793 59.12792969 131.14725586 59.70898438 132.25341797 C61.28177873 135.22451025 62.88446252 138.17697832 64.5 141.125 C64.96760742 142.01340576 65.43521484 142.90181152 65.91699219 143.81713867 C68.51731765 148.70562332 68.51731765 148.70562332 73.34375 151.0546875 C74.2203125 151.03664063 75.096875 151.01859375 76 151 C74.75 152.5625 74.75 152.5625 73 154 C71.07568359 153.88061523 71.07568359 153.88061523 69 153 C67.48291016 151.00415039 67.48291016 151.00415039 66.0390625 148.34765625 C65.4925 147.35733398 64.9459375 146.36701172 64.3828125 145.34667969 C63.80273438 144.26290039 63.22265625 143.17912109 62.625 142.0625 C62.01140625 140.93875977 61.3978125 139.81501953 60.765625 138.65722656 C59.4731265 136.28938622 58.18907456 133.91723082 56.91113281 131.54150391 C55.11597564 128.20707272 53.29095885 124.88966034 51.4609375 121.57421875 C33.60839559 89.07343732 18.6423581 55.44577031 5.625 20.75 C5.33760956 19.99007751 5.05021912 19.23015503 4.75411987 18.44720459 C3.9437391 16.29632517 3.14548737 14.14137491 2.3515625 11.984375 C1.89604004 10.75428711 1.44051758 9.52419922 0.97119141 8.25683594 C0.08314186 5.27881156 -0.21903927 3.07528221 0 0 Z " fill="#0C1C2F" transform="translate(152,538)"/>
<path d="M0 0 C0.95731865 2.54158288 1.13180683 3.66318897 0.12646484 6.23217773 C-0.34065918 7.04114502 -0.8077832 7.8501123 -1.2890625 8.68359375 C-1.81201904 9.60076172 -2.33497559 10.51792969 -2.8737793 11.46289062 C-3.45168213 12.44451172 -4.02958496 13.42613281 -4.625 14.4375 C-5.21385986 15.45650391 -5.80271973 16.47550781 -6.40942383 17.52539062 C-27.67936772 54.09962885 -51.79988307 89.67761485 -79.32421875 121.85546875 C-81.88246626 124.84947693 -84.385238 127.88619964 -86.875 130.9375 C-87.96361328 132.25814453 -87.96361328 132.25814453 -89.07421875 133.60546875 C-90.24116509 135.05645882 -91.37858383 136.53285928 -92.45703125 138.05078125 C-93.6875 139.75 -93.6875 139.75 -96 142 C-99.49160091 142.06983202 -101.18915407 141.67570494 -103.875 139.4375 C-104.24625 138.963125 -104.6175 138.48875 -105 138 C-101.97580475 138.58803797 -98.98241547 139.22678118 -96 140 C-95.59031982 139.11272217 -95.59031982 139.11272217 -95.17236328 138.20751953 C-94.0350875 136.06606855 -92.84719768 134.48592604 -91.2421875 132.6796875 C-90.70343994 132.06762451 -90.16469238 131.45556152 -89.60961914 130.82495117 C-89.03719482 130.18146729 -88.46477051 129.5379834 -87.875 128.875 C-86.68227174 127.5154816 -85.49086115 126.15480604 -84.30078125 124.79296875 C-83.72666504 124.13603027 -83.15254883 123.4790918 -82.56103516 122.80224609 C-79.24208451 118.97045165 -76.11801348 114.99547215 -73 111 C-71.94162035 109.66128904 -70.88300478 108.32276458 -69.82421875 106.984375 C-62.35533533 97.50427912 -55.23950455 87.84276614 -48.35546875 77.93164062 C-47.12143944 76.17305996 -45.86608951 74.43409852 -44.59375 72.703125 C-31.58746782 54.92787269 -20.12542294 35.9942151 -9 17 C-8.37279053 15.92927246 -8.37279053 15.92927246 -7.73291016 14.83691406 C-3.34473216 7.66288481 -3.34473216 7.66288481 0 0 Z " fill="#0C0F2A" transform="translate(779,662)"/>
<path d="M0 0 C6.13722814 0.32301201 11.16230728 3.3956321 16 7 C16 7.66 16 8.32 16 9 C10.0942118 7.44584521 5.02261107 4.40465533 0 1 C0 0.67 0 0.34 0 0 Z " fill="#182551" transform="translate(742,528)"/>
<path d="M0 0 C3.73487777 0.4979837 5.81237635 0.87491756 9 3 C9 3.66 9 4.32 9 5 C10.423125 4.2265625 10.423125 4.2265625 11.875 3.4375 C12.90625 2.963125 13.9375 2.48875 15 2 C15.66 2.33 16.32 2.66 17 3 C14.95257162 4.81993634 13.44376035 5.90138659 10.75 6.5 C6.59877101 5.74523109 3.34091929 3.5284873 0 1 C0 0.67 0 0.34 0 0 Z " fill="#12213D" transform="translate(483,953)"/>
<path d="M0 0 C0 3.51716303 -0.82445585 4.37121748 -3 7 C-8.53846154 6.38461538 -8.53846154 6.38461538 -10.875 4.4375 C-11.24625 3.963125 -11.6175 3.48875 -12 3 C-8.97580475 3.58803797 -5.98241547 4.22678118 -3 5 C-2.690625 4.360625 -2.38125 3.72125 -2.0625 3.0625 C-1 1 -1 1 0 0 Z " fill="#0F1333" transform="translate(686,797)"/>
<path d="M0 0 C4.83256305 0.41421969 6.82679218 2.46413986 10 6 C6.62972148 6 5.93297304 5.50175992 3.3125 3.5625 C2.68988281 3.11003906 2.06726563 2.65757812 1.42578125 2.19140625 C0.95527344 1.79824219 0.48476563 1.40507813 0 1 C0 0.67 0 0.34 0 0 Z " fill="#162D4E" transform="translate(435,921)"/>
<path d="M0 0 C4.75481646 0.57634139 7.97048212 2.55068521 12 5 C9.44345185 5.95582656 8.39658231 6.17802782 5.859375 5.0390625 C5.16328125 4.57242188 4.4671875 4.10578125 3.75 3.625 C3.04359375 3.16351562 2.3371875 2.70203125 1.609375 2.2265625 C1.07828125 1.82179688 0.5471875 1.41703125 0 1 C0 0.67 0 0.34 0 0 Z " fill="#17204D" transform="translate(802,562)"/>
<path d="M0 0 C0.33 0 0.66 0 1 0 C1.36923077 5.41538462 1.36923077 5.41538462 -0.5 8.375 C-0.995 8.91125 -1.49 9.4475 -2 10 C-2.99 9.67 -3.98 9.34 -5 9 C-4.34 8.67 -3.68 8.34 -3 8 C-2.09656316 6.11736119 -2.09656316 6.11736119 -1.375 3.9375 C-1.11460937 3.20402344 -0.85421875 2.47054687 -0.5859375 1.71484375 C-0.39257812 1.14894531 -0.19921875 0.58304688 0 0 Z " fill="#182253" transform="translate(825,562)"/>
<path d="M0 0 C3.73487777 0.4979837 5.81237635 0.87491756 9 3 C9 3.66 9 4.32 9 5 C5.22454612 3.90931332 2.52956528 3.0916909 0 0 Z " fill="#172250" transform="translate(779,549)"/>
</svg>
