<?xml version="1.0" encoding="UTF-8"?>
<svg version="1.1" xmlns="http://www.w3.org/2000/svg" width="1563" height="1563">
<path d="M0 0 C0.89235352 0.52247314 1.78470703 1.04494629 2.70410156 1.58325195 C4.23357422 2.47270508 4.23357422 2.47270508 5.79394531 3.38012695 C6.88320313 4.02079102 7.97246094 4.66145508 9.09472656 5.3215332 C10.25193628 5.9965996 11.40949513 6.67106782 12.56738281 7.3449707 C14.97043239 8.74419125 17.37196576 10.14596256 19.77246094 11.54956055 C25.28259501 14.76852704 30.81483015 17.94918349 36.34472656 21.1340332 C38.50888121 22.38257142 40.6729434 23.63126988 42.83691406 24.88012695 C47.19538044 27.39472756 51.55484847 29.90757982 55.91503906 32.41918945 C67.39921476 39.03626212 78.8666955 45.68037297 90.31054688 52.36694336 C100.87092938 58.53322374 111.46599422 64.6389927 122.0625 70.74291992 C127.49132599 73.87083469 132.91791937 77.00261768 138.34472656 80.1340332 C140.51138239 81.38405199 142.67804906 82.63405199 144.84472656 83.8840332 C157.84472656 91.3840332 170.84472656 98.8840332 183.84472656 106.3840332 C184.91795166 107.00318604 185.99117676 107.62233887 187.09692383 108.26025391 C189.25632051 109.5060909 191.41566325 110.75202138 193.57495117 111.99804688 C199.10240253 115.18752273 204.63087777 118.37520205 210.16113281 121.55981445 C220.06931031 127.26728997 229.97110667 132.98241481 239.81591797 138.79858398 C249.48370027 144.49985844 259.22354656 150.07763085 268.94970703 155.6784668 C274.41642636 158.82735374 279.88047543 161.98086584 285.34472656 165.1340332 C287.51137967 166.3840567 289.67804636 167.63405667 291.84472656 168.8840332 C296.1780599 171.3840332 300.51139323 173.8840332 304.84472656 176.3840332 C305.9173877 177.00286377 306.99004883 177.62169434 308.09521484 178.25927734 C310.26029727 179.50838838 312.42533638 180.7575745 314.59033203 182.00683594 C320.03088362 185.1460563 325.47219872 188.28393883 330.91503906 191.41918945 C341.92419811 197.76223111 352.92529281 204.11896064 363.90722656 210.5090332 C364.94314941 211.11046143 365.97907227 211.71188965 367.04638672 212.33154297 C367.99175293 212.88253662 368.93711914 213.43353027 369.91113281 214.0012207 C371.16325562 214.72994385 371.16325562 214.72994385 372.44067383 215.47338867 C374.34472656 216.6340332 374.34472656 216.6340332 375.34472656 217.6340332 C382.06919502 301.1600823 358.57063014 391.39664544 331.96972656 469.6965332 C331.72264954 470.42669647 331.47557251 471.15685974 331.2210083 471.90914917 C328.35030577 480.35824968 325.24740655 488.59366171 321.34472656 496.6340332 C311.07727126 491.72642215 301.28063858 486.09543381 291.42871094 480.41137695 C285.82446457 477.18157062 280.20994106 473.96971825 274.59472656 470.7590332 C274.00309723 470.42062408 273.4114679 470.08221497 272.8019104 469.73355103 C262.3570211 463.76101549 251.86858422 457.86863015 241.36425781 452.0012207 C232.61982564 447.11516526 223.90455861 442.17758529 215.1875 437.24291992 C211.36765502 435.081053 207.54654799 432.92142265 203.7253418 430.76196289 C201.80289357 429.67552465 199.88053045 428.58893578 197.95825195 427.50219727 C193.23015434 424.82925462 188.50124917 422.15776306 183.77050781 419.48950195 C172.72029465 413.25434151 161.69343158 406.97967198 150.68362427 400.67349243 C142.3488259 395.90100463 133.98493418 391.18358686 125.59472656 386.5090332 C117.39069017 381.9381296 109.25349877 377.26808542 101.15722656 372.5090332 C92.66251876 367.5177612 84.08742664 362.71373194 75.41992188 358.02978516 C67.42930242 353.7047654 59.54280126 349.21127154 51.66503906 344.68481445 C46.21984869 341.55649133 40.75255613 338.46812653 35.28222656 335.3840332 C24.93380129 329.54698965 14.61654083 323.65625129 4.30737305 317.75024414 C3.16856689 317.09830078 2.02976074 316.44635742 0.85644531 315.7746582 C-0.15973877 315.19232422 -1.17592285 314.60999023 -2.22290039 314.01000977 C-3.68196672 313.18462606 -5.15590482 312.38371751 -6.65527344 311.6340332 C-6.98527344 345.9540332 -7.31527344 380.2740332 -7.65527344 415.6340332 C-5.67527344 416.2940332 -3.69527344 416.9540332 -1.65527344 417.6340332 C0.43334961 418.70874023 0.43334961 418.70874023 2.35644531 419.8918457 C3.09967041 420.34398437 3.84289551 420.79612305 4.60864258 421.26196289 C5.40842529 421.75599609 6.20820801 422.2500293 7.03222656 422.7590332 C8.82596082 423.8510609 10.62026212 424.94215755 12.41503906 426.0324707 C13.37313477 426.61609375 14.33123047 427.1997168 15.31835938 427.80102539 C20.65777118 431.03499633 26.03378672 434.20703875 31.40722656 437.3840332 C32.55791093 438.06510175 33.70854532 438.74625475 34.85913086 439.42749023 C37.19157919 440.80844485 39.52418879 442.18912634 41.85693359 443.56958008 C47.52106843 446.92180299 53.18271161 450.27823152 58.84472656 453.6340332 C61.08820823 454.96347365 63.33169782 456.29290071 65.57519531 457.62231445 C69.56215078 459.98493335 73.54896341 462.34779283 77.53555298 464.71102905 C88.46813827 471.19181315 99.40170041 477.67088984 110.34472656 484.1340332 C121.86672495 490.93912772 133.37816201 497.76201431 144.88916016 504.58569336 C150.5406274 507.93579505 156.19272386 511.284835 161.84472656 514.6340332 C164.09472921 515.96736207 166.34472921 517.30069541 168.59472656 518.6340332 C169.70847656 519.2940332 170.82222656 519.9540332 171.96972656 520.6340332 C182.09472656 526.6340332 182.09472656 526.6340332 185.46923828 528.63378906 C187.72081302 529.96802542 189.97244069 531.30217245 192.22412109 532.63623047 C197.82546353 535.95501979 203.42589819 539.27532137 209.02441406 542.59887695 C219.51655209 548.82540154 230.01662382 555.03702465 240.54736328 561.19799805 C243.0124727 562.64022716 245.4763658 564.08449447 247.93896484 565.53100586 C248.53231628 565.87951599 249.12566772 566.22802612 249.73699951 566.58709717 C250.91319015 567.27798232 252.08933818 567.96894003 253.26544189 568.65997314 C257.02787592 570.86829178 260.80288768 573.05381995 264.58300781 575.23168945 C266.42046882 576.30292433 268.25772339 577.3745134 270.09472656 578.4465332 C271.34564087 579.15664551 271.34564087 579.15664551 272.62182617 579.88110352 C273.37085205 580.32164062 274.11987793 580.76217773 274.89160156 581.21606445 C275.53967773 581.58965088 276.18775391 581.9632373 276.85546875 582.34814453 C278.34472656 583.6340332 278.34472656 583.6340332 279.21728516 585.47875977 C279.39522786 588.48810492 278.37815675 589.96007686 276.83691406 592.53637695 C276.2689209 593.49850098 275.70092773 594.460625 275.11572266 595.4519043 C274.49004395 596.48138184 273.86436523 597.51085937 273.21972656 598.5715332 C272.58244629 599.63968262 271.94516602 600.70783203 271.28857422 601.80834961 C269.32188679 605.09264468 267.33611671 608.36466842 265.34472656 611.6340332 C264.76722656 612.58777832 264.18972656 613.54152344 263.59472656 614.52416992 C253.18569637 631.68740868 242.18417778 648.42359791 230.34472656 664.6340332 C229.53600098 665.74246582 229.53600098 665.74246582 228.7109375 666.87329102 C218.83748133 680.38520675 208.90246115 693.76774515 198.02050781 706.48950195 C194.7161431 710.35671767 191.50578568 714.29924517 188.29394531 718.2434082 C185.99870133 721.05841685 183.67732897 723.84995936 181.34472656 726.6340332 C177.42703068 726.0413629 174.56169392 724.85033081 171.12597656 722.89575195 C170.12228027 722.32912842 169.11858398 721.76250488 168.08447266 721.17871094 C167.01535645 720.56584229 165.94624023 719.95297363 164.84472656 719.3215332 C163.17337646 718.37419312 163.17337646 718.37419312 161.46826172 717.40771484 C158.08962246 715.49029736 154.71656063 713.56338758 151.34472656 711.6340332 C149.50889955 710.58696446 147.67297025 709.54007503 145.83691406 708.4934082 C142.41567675 706.54109631 138.99683104 704.5846658 135.57910156 702.6262207 C127.15778151 697.80541221 118.70255304 693.04436705 110.25195312 688.27514648 C104.4861675 685.02039246 98.72287498 681.76122567 92.95922852 678.50268555 C88.23076973 675.82964332 83.50156572 673.15794161 78.77050781 670.48950195 C68.91407462 664.92794025 59.07313414 659.34051485 49.25192261 653.71697998 C36.78101742 646.57641032 24.26413366 639.52225793 11.71524048 632.51940918 C7.79554563 630.32683597 3.88082205 628.12552462 -0.03320312 625.92285156 C-0.76904633 625.50883842 -1.50488953 625.09482529 -2.26303101 624.6682663 C-4.06048932 623.65693376 -5.85788757 622.64549449 -7.65527344 621.6340332 C-8.12884813 634.93384412 -8.45914196 648.2290055 -8.61123848 661.53659916 C-8.68629706 667.71826406 -8.808898 673.89103266 -9.04394531 680.06884766 C-11.55482688 705.82153871 -11.55482688 705.82153871 -4.12280273 729.3145752 C1.52775864 734.91055737 8.77151404 737.57289651 16.31541443 739.70727539 C20.4338654 740.96723357 23.51819628 742.88335039 27.09472656 745.2590332 C28.24104925 745.95996464 29.3904175 746.65596115 30.54394531 747.3449707 C31.13868652 747.70429687 31.73342773 748.06362305 32.34619141 748.43383789 C36.5195932 750.94012218 40.71492552 753.40954243 44.90722656 755.8840332 C45.84211914 756.43591309 46.77701172 756.98779297 47.74023438 757.55639648 C49.65405576 758.68592379 51.56795617 759.81531719 53.48193359 760.94458008 C59.01260786 764.20846085 64.54103807 767.4761432 70.06884766 770.74487305 C74.78638924 773.53392881 79.5066373 776.31823978 84.23144531 779.0949707 C102.87520629 790.06198039 102.87520629 790.06198039 111.34472656 795.6340332 C103.50810802 803.73187236 94.92765721 810.86261988 86.03613281 817.75512695 C83.58359348 819.65790331 81.1556301 821.58604802 78.74707031 823.54418945 C69.96464474 830.68286449 60.94516972 837.41065692 51.71142578 843.9543457 C49.33443722 845.64133573 46.96645408 847.34045823 44.59863281 849.0402832 C32.75836438 857.48688211 20.57746721 865.30069826 8.16064453 872.87182617 C6.20233482 874.09734026 4.27037399 875.3655634 2.36083984 876.66577148 C1.39774902 877.31658691 0.4346582 877.96740234 -0.55761719 878.63793945 C-1.41734131 879.23550049 -2.27706543 879.83306152 -3.1628418 880.44873047 C-6.20862244 881.89718428 -7.49668383 881.67442558 -10.65527344 880.6340332 C-20.1866029 875.91762599 -29.00952165 869.86876575 -37.78613281 863.89868164 C-39.59392363 862.67554209 -41.41100919 861.46810228 -43.23339844 860.2668457 C-59.50022462 849.54180629 -75.34432493 838.35429831 -90.61376953 826.24633789 C-92.52050237 824.74047043 -94.43813339 823.25033142 -96.36230469 821.7668457 C-107.84684219 812.89156201 -118.72485102 803.345035 -129.47558594 793.59887695 C-131.45366863 791.81576657 -133.45383144 790.06388552 -135.46777344 788.3215332 C-146.05996548 779.0650791 -156.14114479 769.31087074 -166.06884766 759.35083008 C-168.04573354 757.36853076 -170.02798382 755.39170688 -172.01074219 753.4152832 C-178.10647053 747.32275104 -184.08507142 741.21699923 -189.65527344 734.6340332 C-191.2749516 732.85833099 -192.89939062 731.08695013 -194.53027344 729.3215332 C-198.59011436 724.87038232 -202.43861112 720.29689983 -206.21777344 715.60668945 C-209.58855972 711.49584272 -213.07392204 707.48585218 -216.58251953 703.4921875 C-217.0680127 702.93313721 -217.55350586 702.37408691 -218.05371094 701.7980957 C-218.48345215 701.30776855 -218.91319336 700.81744141 -219.35595703 700.31225586 C-220.99343187 698.19726111 -222.31295294 695.94474557 -223.65527344 693.6340332 C-215.06284435 688.31173247 -206.42138448 683.08561291 -197.71777344 677.9465332 C-196.53346971 677.24611201 -195.34922609 676.54558918 -194.16503906 675.8449707 C-190.66262488 673.77323295 -187.15901542 671.70352458 -183.65527344 669.6340332 C-181.75811836 668.51297273 -179.86098151 667.3918814 -177.96386719 666.27075195 C-175.30742115 664.70103384 -172.65089716 663.13144839 -169.99414062 661.56225586 C-159.35964083 655.28032962 -148.73562578 648.98070863 -138.11083984 642.68237305 C-131.33854916 638.66786469 -124.56542082 634.65476958 -117.79248047 630.64135742 C-112.68294762 627.61356842 -107.57348688 624.58565814 -102.46444702 621.55703735 C-90.64819345 614.55241894 -78.82944759 607.55210514 -67.00170898 600.56689453 C-60.29324648 596.60415903 -53.5894536 592.6335875 -46.88717651 588.66040039 C-45.1709245 587.6433084 -43.45423861 586.62694865 -41.73754883 585.6105957 C-36.19198899 582.32694072 -30.6510038 579.03610224 -25.12011719 575.7277832 C-23.59257813 574.81706055 -23.59257813 574.81706055 -22.03417969 573.88793945 C-20.11410148 572.74303226 -18.19603408 571.59474412 -16.28027344 570.44262695 C-15.43335938 569.93860352 -14.58644531 569.43458008 -13.71386719 568.9152832 C-12.97450928 568.47249023 -12.23515137 568.02969727 -11.47338867 567.57348633 C-9.65527344 566.6340332 -9.65527344 566.6340332 -7.65527344 566.6340332 C-7.98527344 532.3140332 -8.31527344 497.9940332 -8.65527344 462.6340332 C-23.84709615 471.07393471 -38.91200984 479.50411323 -53.88183594 488.29418945 C-60.37903595 492.08039834 -66.97710312 495.66911978 -73.59155273 499.24511719 C-82.38698573 504.00743777 -91.06336762 508.96565178 -99.73242188 513.95336914 C-105.28553471 517.14645541 -110.84496649 520.32849751 -116.40527344 523.5090332 C-117.2945755 524.01796112 -117.2945755 524.01796112 -118.20184326 524.53717041 C-127.59906964 529.9132551 -137.03782043 535.21133007 -146.49536133 540.48071289 C-153.66336833 544.48681653 -160.7637915 548.59795218 -167.84277344 552.7590332 C-176.34118677 557.75248248 -184.92066831 562.55729812 -193.59106445 567.24487305 C-202.38668492 572.00722979 -211.06321028 576.96556126 -219.73242188 581.95336914 C-228.24285734 586.84694062 -236.76522562 591.71966172 -245.29574585 596.578125 C-248.29257473 598.2852359 -251.28743758 599.99562408 -254.27832031 601.71313477 C-257.73195485 603.6962019 -261.19330308 605.66555138 -264.65527344 607.6340332 C-266.23066895 608.54258057 -266.23066895 608.54258057 -267.83789062 609.46948242 C-269.29437012 610.29343506 -269.29437012 610.29343506 -270.78027344 611.1340332 C-271.62847656 611.6187207 -272.47667969 612.1034082 -273.35058594 612.6027832 C-275.65527344 613.6340332 -275.65527344 613.6340332 -279.65527344 613.6340332 C-304.97335696 569.14865665 -326.85574269 524.34247632 -344.95147705 476.47833252 C-345.6141544 474.7417857 -346.29596357 473.01257432 -346.97900391 471.28393555 C-347.35557129 470.31020996 -347.73213867 469.33648438 -348.12011719 468.33325195 C-348.60726196 467.09901489 -348.60726196 467.09901489 -349.10424805 465.83984375 C-349.74421884 463.27797572 -349.72427768 462.0459188 -348.65527344 459.6340332 C-347.05493164 458.28466797 -347.05493164 458.28466797 -344.95605469 457.07543945 C-344.17053223 456.61403564 -343.38500977 456.15263184 -342.57568359 455.67724609 C-341.28476807 454.94429321 -341.28476807 454.94429321 -339.96777344 454.1965332 C-339.07364746 453.67502686 -338.17952148 453.15352051 -337.25830078 452.61621094 C-335.35747802 451.50792062 -333.45373991 450.40461778 -331.54736328 449.3059082 C-327.84836398 447.16757061 -324.1737554 444.98942727 -320.49926758 442.80932617 C-314.96103533 439.52427973 -309.41119216 436.25884883 -303.86425781 432.98852539 C-294.10856774 427.23560794 -284.36100835 421.47092764 -274.65527344 415.6340332 C-264.939412 409.79104881 -255.18149071 404.02071994 -245.41552734 398.26196289 C-240.93158795 395.61744601 -236.44958496 392.96965426 -231.96777344 390.3215332 C-231.0733252 389.79309814 -230.17887695 389.26466309 -229.25732422 388.72021484 C-221.88634167 384.36427989 -214.52035385 379.99993807 -207.15527344 375.6340332 C-196.21730026 369.15017319 -185.27323671 362.67670932 -174.32470703 356.21069336 C-169.7677885 353.51921907 -165.21157225 350.82655641 -160.65527344 348.1340332 C-158.82194334 347.05069439 -156.98861001 345.96736105 -155.15527344 344.8840332 C-153.79402344 344.0796582 -153.79402344 344.0796582 -152.40527344 343.2590332 C-144.15527344 338.3840332 -144.15527344 338.3840332 -141.40649414 336.75976562 C-139.56907884 335.67401281 -137.73167654 334.58823799 -135.89428711 333.50244141 C-131.37351302 330.83094759 -126.8525301 328.15980865 -122.33105469 325.48950195 C-112.26772055 319.54566132 -102.20916922 313.59382591 -92.15527344 307.6340332 C-81.21730026 301.15017319 -70.27323671 294.67670932 -59.32470703 288.21069336 C-55.68682473 286.06203377 -52.0493754 283.9126421 -48.41210938 281.76293945 C-46.58882704 280.68563342 -44.76526381 279.60880262 -42.94140625 278.5324707 C-38.14023802 275.6983161 -33.34507417 272.85457829 -28.55761719 269.99731445 C-27.55923828 269.40305664 -26.56085938 268.80879883 -25.53222656 268.1965332 C-23.61903304 267.05751566 -21.70748361 265.9157305 -19.79785156 264.77075195 C-18.50331055 264.00118164 -18.50331055 264.00118164 -17.18261719 263.21606445 C-16.427146 262.76465088 -15.6716748 262.3132373 -14.89331055 261.84814453 C-12.65527344 260.6340332 -12.65527344 260.6340332 -7.65527344 258.6340332 C-7.98527344 224.3140332 -8.31527344 189.9940332 -8.65527344 154.6340332 C-27.11540351 165.06386536 -27.11540351 165.06386536 -45.53027344 175.5715332 C-54.45892647 180.68782897 -63.41559739 185.75048932 -72.40527344 190.7590332 C-80.60930983 195.3299368 -88.74650123 199.99998099 -96.84277344 204.7590332 C-105.34118677 209.75248248 -113.92066831 214.55729812 -122.59106445 219.24487305 C-131.38668492 224.00722979 -140.06321028 228.96556126 -148.73242188 233.95336914 C-154.28553471 237.14645541 -159.84496649 240.32849751 -165.40527344 243.5090332 C-165.99814148 243.84831848 -166.59100952 244.18760376 -167.20184326 244.53717041 C-176.59906964 249.9132551 -186.03782043 255.21133007 -195.49536133 260.48071289 C-202.66336833 264.48681653 -209.7637915 268.59795218 -216.84277344 272.7590332 C-225.3360731 277.74947782 -233.90985703 282.5524811 -242.57568359 287.23608398 C-251.48871898 292.06083599 -260.28027465 297.08739001 -269.06396484 302.14282227 C-282.11530939 309.65343207 -295.21102709 317.07963028 -308.35742188 324.42260742 C-315.82397514 328.59712081 -323.25870226 332.82394251 -330.67797852 337.08178711 C-338.73514337 341.69795921 -346.83977038 346.22819211 -354.95605469 350.73950195 C-360.59073717 353.88050642 -366.13571627 357.10810717 -371.59008789 360.55444336 C-373.65527344 361.6340332 -373.65527344 361.6340332 -376.65527344 361.6340332 C-383.83252217 325.17911058 -388.38810794 288.55659572 -390.38427734 251.44995117 C-390.5529406 248.33135894 -390.7517392 245.2176968 -390.98486328 242.10327148 C-391.28536672 238.07332844 -391.47865054 234.04631435 -391.65527344 230.0090332 C-391.75300049 228.85443604 -391.85072754 227.69983887 -391.95141602 226.51025391 C-392.03437656 223.11452215 -391.91878636 220.7923827 -390.65527344 217.6340332 C-387.26819795 214.5546328 -383.55701561 212.53739406 -379.48101807 210.54412842 C-376.61058132 209.1132762 -373.87001298 207.46731521 -371.10449219 205.8449707 C-368.85165662 204.56443939 -366.59771575 203.28585102 -364.34277344 202.0090332 C-361.86656899 200.60183486 -359.39159314 199.19248665 -356.91699219 197.7824707 C-356.30097137 197.43158386 -355.68495056 197.08069702 -355.05026245 196.71917725 C-349.2278695 193.39851467 -343.43849982 190.02240259 -337.65527344 186.6340332 C-328.42741796 181.23021585 -319.15532401 175.90750804 -309.86425781 170.61352539 C-301.76783211 165.99900517 -293.69720835 161.34308065 -285.65527344 156.6340332 C-277.02029786 151.57772398 -268.34921025 146.58796198 -259.65527344 141.6340332 C-249.93402838 136.09417387 -240.24632475 130.50028389 -230.58837891 124.85058594 C-220.06442719 118.69636579 -209.50147206 112.61033324 -198.9375 106.52514648 C-193.50867405 103.39723174 -188.08205337 100.26549589 -182.65527344 97.1340332 C-176.13294069 93.37039401 -169.61013582 89.60758698 -163.08496094 85.84887695 C-152.5929525 79.80348162 -142.11045668 73.74293102 -131.65527344 67.6340332 C-120.10797828 60.88702126 -108.52625316 54.20064003 -96.9375 47.52514648 C-91.50867405 44.39723174 -86.08205337 41.26549589 -80.65527344 38.1340332 C-74.13294069 34.37039401 -67.61013582 30.60758698 -61.08496094 26.84887695 C-49.25401396 20.03181796 -37.43674849 13.19289984 -25.65673828 6.28808594 C-23.84358567 5.22710413 -22.02669856 4.17247022 -20.20556641 3.12524414 C-18.51293896 2.13552861 -16.83926316 1.11262605 -15.18701172 0.05688477 C-14.41470215 -0.42039062 -13.64239258 -0.89766602 -12.84667969 -1.3894043 C-12.17967041 -1.81914551 -11.51266113 -2.24888672 -10.82543945 -2.69165039 C-6.81362374 -3.93820625 -3.56140798 -1.83211453 0 0 Z " fill="#3A6BB9" transform="translate(788.6552734375,289.365966796875)"/>
<path d="M0 0 C6.74583396 2.24861132 6.74583396 2.24861132 10.01171875 4.2578125 C10.75494385 4.70995117 11.49816895 5.16208984 12.26391602 5.62792969 C13.06369873 6.12196289 13.86348145 6.61599609 14.6875 7.125 C16.48123425 8.21702769 18.27553555 9.30812435 20.0703125 10.3984375 C21.50745605 11.27387207 21.50745605 11.27387207 22.97363281 12.16699219 C28.31304461 15.40096313 33.68906015 18.57300555 39.0625 21.75 C40.21318437 22.43106855 41.36381876 23.11222154 42.5144043 23.79345703 C44.84685262 25.17441165 47.17946223 26.55509314 49.51220703 27.93554688 C55.17634187 31.28776979 60.83798505 34.64419832 66.5 38 C68.74348166 39.32944045 70.98697126 40.65886751 73.23046875 41.98828125 C77.21742422 44.35090015 81.20423684 46.71375963 85.19082642 49.07699585 C96.12341171 55.55777995 107.05697384 62.03685664 118 68.5 C129.52199839 75.30509452 141.03343545 82.12798111 152.54443359 88.95166016 C158.19590084 92.30176185 163.8479973 95.6508018 169.5 99 C171.75000264 100.33332887 174.00000264 101.66666221 176.25 103 C177.36375 103.66 178.4775 104.32 179.625 105 C189.75 111 189.75 111 193.12451172 112.99975586 C195.37608646 114.33399221 197.62771412 115.66813925 199.87939453 117.00219727 C205.48073697 120.32098659 211.08117163 123.64128816 216.6796875 126.96484375 C227.17182552 133.19136834 237.67189725 139.40299145 248.20263672 145.56396484 C250.66774614 147.00619396 253.13163923 148.45046127 255.59423828 149.89697266 C256.18758972 150.24548279 256.78094116 150.59399292 257.39227295 150.95306396 C258.56846359 151.64394912 259.74461162 152.33490683 260.92071533 153.02593994 C264.68314936 155.23425858 268.45816112 157.41978675 272.23828125 159.59765625 C274.07574225 160.66889113 275.91299683 161.7404802 277.75 162.8125 C278.58394287 163.2859082 279.41788574 163.75931641 280.27709961 164.24707031 C281.02612549 164.68760742 281.77515137 165.12814453 282.546875 165.58203125 C283.19495117 165.95561768 283.84302734 166.3292041 284.51074219 166.71411133 C286 168 286 168 286.87255859 169.84472656 C287.0505013 172.85407172 286.03343018 174.32604366 284.4921875 176.90234375 C283.64019775 178.34552979 283.64019775 178.34552979 282.77099609 179.81787109 C281.83247803 181.3620874 281.83247803 181.3620874 280.875 182.9375 C279.91907959 184.53972412 279.91907959 184.53972412 278.94384766 186.17431641 C276.97716023 189.45861148 274.99139015 192.73063522 273 196 C272.4225 196.95374512 271.845 197.90749023 271.25 198.89013672 C260.84096981 216.05337547 249.83945122 232.78956471 238 249 C237.46084961 249.73895508 236.92169922 250.47791016 236.36621094 251.23925781 C226.49275477 264.75117354 216.55773458 278.13371195 205.67578125 290.85546875 C202.37141654 294.72268447 199.16105911 298.66521197 195.94921875 302.609375 C193.65397477 305.42438365 191.33260241 308.21592616 189 311 C185.08230411 310.4073297 182.21696736 309.21629761 178.78125 307.26171875 C177.77755371 306.69509521 176.77385742 306.12847168 175.73974609 305.54467773 C174.67062988 304.93180908 173.60151367 304.31894043 172.5 303.6875 C171.3857666 303.05593994 170.2715332 302.42437988 169.12353516 301.77368164 C165.7448959 299.85626416 162.37183406 297.92935438 159 296 C157.16417299 294.95293126 155.32824369 293.90604182 153.4921875 292.859375 C150.07095018 290.90706311 146.65210448 288.9506326 143.234375 286.9921875 C134.81305495 282.171379 126.35782648 277.41033385 117.90722656 272.64111328 C112.14144094 269.38635925 106.37814842 266.12719247 100.61450195 262.86865234 C95.88604317 260.19561012 91.15683916 257.5239084 86.42578125 254.85546875 C76.56934805 249.29390705 66.72840758 243.70648165 56.90719604 238.08294678 C44.43629086 230.94237712 31.9194071 223.88822473 19.37051392 216.88537598 C15.45081907 214.69280277 11.53609548 212.49149142 7.62207031 210.28881836 C6.88622711 209.87480522 6.15038391 209.46079208 5.39224243 209.03423309 C3.59478412 208.02290055 1.79738587 207.01146128 0 206 C-0.47357469 219.29981092 -0.80386853 232.5949723 -0.95596504 245.90256596 C-1.03102362 252.08423086 -1.15362456 258.25699945 -1.38867188 264.43481445 C-3.89955344 290.1875055 -3.89955344 290.1875055 3.5324707 313.68054199 C9.18303207 319.27652417 16.42678747 321.93886331 23.97068787 324.07324219 C28.08913884 325.33320037 31.17346972 327.24931718 34.75 329.625 C35.89632269 330.32593144 37.04569094 331.02192794 38.19921875 331.7109375 C39.09133057 332.24992676 39.09133057 332.24992676 40.00146484 332.79980469 C44.17486663 335.30608898 48.37019896 337.77550922 52.5625 340.25 C53.49739258 340.80187988 54.43228516 341.35375977 55.39550781 341.92236328 C57.30932919 343.05189059 59.22322961 344.18128399 61.13720703 345.31054688 C66.6678813 348.57442765 72.19631151 351.84211 77.72412109 355.11083984 C82.44166267 357.8998956 87.16191074 360.68420658 91.88671875 363.4609375 C110.53047973 374.42794719 110.53047973 374.42794719 119 380 C111.16338146 388.09783916 102.58293065 395.22858667 93.69140625 402.12109375 C91.23886691 404.02387011 88.81090354 405.95201482 86.40234375 407.91015625 C77.61991818 415.04883128 68.60044316 421.77662372 59.36669922 428.3203125 C56.98971065 430.00730253 54.62172751 431.70642502 52.25390625 433.40625 C40.41363781 441.85284891 28.23274065 449.66666506 15.81591797 457.23779297 C13.85760826 458.46330706 11.92564743 459.7315302 10.01611328 461.03173828 C9.05302246 461.68255371 8.08993164 462.33336914 7.09765625 463.00390625 C6.23793213 463.60146729 5.37820801 464.19902832 4.49243164 464.81469727 C1.446651 466.26315108 0.1585896 466.04039237 -3 465 C-12.53132946 460.28359279 -21.35424822 454.23473255 -30.13085938 448.26464844 C-31.93865019 447.04150888 -33.75573575 445.83406908 -35.578125 444.6328125 C-51.84495118 433.90777309 -67.68905149 422.7202651 -82.95849609 410.61230469 C-84.86522893 409.10643723 -86.78285995 407.61629822 -88.70703125 406.1328125 C-100.19156875 397.25752881 -111.06957758 387.7110018 -121.8203125 377.96484375 C-123.7983952 376.18173336 -125.798558 374.42985231 -127.8125 372.6875 C-138.40469204 363.4310459 -148.48587136 353.67683753 -158.41357422 343.71679688 C-160.3904601 341.73449756 -162.37271039 339.75767367 -164.35546875 337.78125 C-170.45119709 331.68871783 -176.42979798 325.58296602 -182 319 C-183.61967817 317.22429779 -185.24411718 315.45291693 -186.875 313.6875 C-190.93484092 309.23634911 -194.78333768 304.66286663 -198.5625 299.97265625 C-201.93328628 295.86180952 -205.41864861 291.85181897 -208.92724609 287.8581543 C-209.41273926 287.299104 -209.89823242 286.74005371 -210.3984375 286.1640625 C-210.82817871 285.67373535 -211.25791992 285.1834082 -211.70068359 284.67822266 C-213.33815844 282.5632279 -214.6576795 280.31071236 -216 278 C-207.40757092 272.67769927 -198.76611105 267.45157971 -190.0625 262.3125 C-188.87819627 261.6120788 -187.69395265 260.91155598 -186.50976562 260.2109375 C-183.00735144 258.13919975 -179.50374198 256.06949138 -176 254 C-174.10284492 252.87893952 -172.20570807 251.7578482 -170.30859375 250.63671875 C-167.65214771 249.06700064 -164.99562373 247.49741519 -162.33886719 245.92822266 C-151.70436739 239.64629641 -141.08035234 233.34667543 -130.45556641 227.04833984 C-123.68327572 223.03383148 -116.91014738 219.02073638 -110.13720703 215.00732422 C-105.02767418 211.97953521 -99.91821345 208.95162494 -94.80917358 205.92300415 C-82.99292001 198.91838573 -71.17417415 191.91807194 -59.34643555 184.93286133 C-52.63797304 180.97012583 -45.93418016 176.9995543 -39.23190308 173.02636719 C-37.51565106 172.00927519 -35.79896517 170.99291545 -34.08227539 169.9765625 C-28.53671555 166.69290751 -22.99573037 163.40206904 -17.46484375 160.09375 C-16.44648437 159.48660156 -15.428125 158.87945313 -14.37890625 158.25390625 C-12.45882804 157.10899906 -10.54076065 155.96071092 -8.625 154.80859375 C-7.77808594 154.30457031 -6.93117188 153.80054688 -6.05859375 153.28125 C-5.31923584 152.83845703 -4.57987793 152.39566406 -3.81811523 151.93945312 C-2 151 -2 151 0 151 C0 101.17 0 51.34 0 0 Z " fill="#2E3F98" transform="translate(781,705)"/>
<path d="M0 0 C0.56147406 26.22482246 0.98425352 52.44874055 1.24349213 78.67836952 C1.36708297 90.85859081 1.53544385 103.03507142 1.81054688 115.21289062 C2.05031475 125.83164309 2.20471686 136.44768706 2.25812387 147.06907117 C2.28933639 152.69112925 2.36222521 158.30544232 2.53752136 163.92500687 C3.56352937 198.10760001 3.56352937 198.10760001 -2.34914589 206.22516251 C-7.94814291 211.18959345 -14.08440238 213.89750075 -21.1801281 216.08303261 C-24.99838395 217.32465501 -28.09382013 219.13581295 -31.51171875 221.2265625 C-33.56899948 222.36175781 -35.62755816 223.49464076 -37.6875 224.625 C-46.59968063 229.54678566 -55.47497844 234.52402738 -64.30517578 239.59130859 C-70.54291411 243.17057372 -76.79822588 246.71739723 -83.0625 250.25 C-92.28249119 255.45087964 -101.47505755 260.6988073 -110.66055298 265.96026611 C-118.99553719 270.73283965 -127.35961445 275.45034721 -135.75 280.125 C-143.95403639 284.6959036 -152.09122779 289.36594778 -160.1875 294.125 C-168.68591333 299.11844928 -177.26539487 303.92326492 -185.93579102 308.61083984 C-194.73141149 313.37319659 -203.40793684 318.33152805 -212.07714844 323.31933594 C-220.58758391 328.21290742 -229.10995219 333.08562852 -237.64047241 337.9440918 C-240.63730129 339.6512027 -243.63216414 341.36159088 -246.62304688 343.07910156 C-250.07668141 345.0621687 -253.53802964 347.03151818 -257 349 C-258.57539551 349.90854736 -258.57539551 349.90854736 -260.18261719 350.83544922 C-261.63909668 351.65940186 -261.63909668 351.65940186 -263.125 352.5 C-263.97320313 352.9846875 -264.82140625 353.469375 -265.6953125 353.96875 C-268 355 -268 355 -272 355 C-297.31808352 310.51462345 -319.20046925 265.70844311 -337.29620361 217.84429932 C-337.95888096 216.1077525 -338.64069014 214.37854112 -339.32373047 212.64990234 C-339.70029785 211.67617676 -340.07686523 210.70245117 -340.46484375 209.69921875 C-340.78960693 208.87639404 -341.11437012 208.05356934 -341.44897461 207.20581055 C-342.08894541 204.64394251 -342.06900424 203.4118856 -341 201 C-339.3996582 199.65063477 -339.3996582 199.65063477 -337.30078125 198.44140625 C-336.51525879 197.98000244 -335.72973633 197.51859863 -334.92041016 197.04321289 C-334.0597998 196.55457764 -333.19918945 196.06594238 -332.3125 195.5625 C-331.41837402 195.04099365 -330.52424805 194.5194873 -329.60302734 193.98217773 C-327.70220458 192.87388742 -325.79846648 191.77058458 -323.89208984 190.671875 C-320.19309055 188.5335374 -316.51848197 186.35539407 -312.84399414 184.17529297 C-307.3057619 180.89024653 -301.75591873 177.62481562 -296.20898438 174.35449219 C-286.4532943 168.60157474 -276.70573491 162.83689444 -267 157 C-257.28413856 151.15701561 -247.52621727 145.38668674 -237.76025391 139.62792969 C-233.27631452 136.98341281 -228.79431152 134.33562105 -224.3125 131.6875 C-222.97082764 130.89484741 -222.97082764 130.89484741 -221.60205078 130.08618164 C-214.23106823 125.73024669 -206.86508041 121.36590487 -199.5 117 C-188.56202683 110.51613999 -177.61796327 104.04267612 -166.66943359 97.57666016 C-162.11251506 94.88518587 -157.55629881 92.19252321 -153 89.5 C-151.16666991 88.41666119 -149.33333658 87.33332785 -147.5 86.25 C-146.5925 85.71375 -145.685 85.1775 -144.75 84.625 C-136.5 79.75 -136.5 79.75 -133.7512207 78.12573242 C-131.9138054 77.03997961 -130.07640311 75.95420479 -128.23901367 74.8684082 C-123.71823958 72.19691439 -119.19725666 69.52577545 -114.67578125 66.85546875 C-104.61244711 60.91162812 -94.55389578 54.95979271 -84.5 49 C-73.56202683 42.51613999 -62.61796327 36.04267612 -51.66943359 29.57666016 C-48.95260577 27.97200732 -46.23602306 26.36694036 -43.51953125 24.76171875 C-42.15175537 23.95347656 -42.15175537 23.95347656 -40.75634766 23.12890625 C-38.93435532 22.05217172 -37.11241431 20.97535032 -35.29052734 19.8984375 C-30.47255728 17.05078595 -25.65322894 14.20546542 -20.83203125 11.36328125 C-19.82462891 10.76902344 -18.81722656 10.17476562 -17.77929688 9.5625 C-15.84220375 8.41988286 -13.90472098 7.27792595 -11.96679688 6.13671875 C-11.09732422 5.62367188 -10.22785156 5.110625 -9.33203125 4.58203125 C-8.18311401 3.90491089 -8.18311401 3.90491089 -7.01098633 3.21411133 C-1.68731148 0 -1.68731148 0 0 0 Z " fill="#2984CE" transform="translate(781,548)"/>
<path d="M0 0 C0.17319361 20.33215279 0.27193239 40.66337329 0.28240681 60.99627686 C0.28900027 70.43767611 0.31981524 79.87782849 0.40795898 89.31884766 C0.48473839 97.54925757 0.51575849 105.77836137 0.49218339 114.00911808 C0.48129131 118.36661065 0.49307017 122.72134546 0.55968666 127.07839966 C0.62173068 131.18373776 0.62237554 135.28460188 0.5768013 139.39011192 C0.57077937 140.89296139 0.58681298 142.39609364 0.62704659 143.89841652 C0.74294436 148.50791632 0.61524196 152.61302266 -1 157 C-4.95802291 160.7019779 -9.06701088 162.73809039 -14 165 C-16.15471028 166.19770934 -18.30191594 167.40913615 -20.4375 168.640625 C-22.62353648 169.84640711 -24.81107639 171.04946701 -27 172.25 C-29.38132322 173.56309001 -31.76111557 174.87893901 -34.140625 176.1953125 C-34.72757141 176.51978363 -35.31451782 176.84425476 -35.91925049 177.17855835 C-41.22289198 180.11447296 -46.49237596 183.10764254 -51.75 186.125 C-58.83930023 190.19346498 -65.94277838 194.234986 -73.0625 198.25 C-82.28249119 203.45087964 -91.47505755 208.6988073 -100.66055298 213.96026611 C-108.99553719 218.73283965 -117.35961445 223.45034721 -125.75 228.125 C-133.95403639 232.6959036 -142.09122779 237.36594778 -150.1875 242.125 C-158.68591333 247.11844928 -167.26539487 251.92326492 -175.93579102 256.61083984 C-184.73141149 261.37319659 -193.40793684 266.33152805 -202.07714844 271.31933594 C-207.6302607 274.51242187 -213.1895891 277.69464681 -218.75 280.875 C-219.34187103 281.21362061 -219.93374207 281.55224121 -220.54354858 281.90112305 C-230.0164042 287.31869267 -239.52494978 292.66988557 -249.05322266 297.98950195 C-256.45890105 302.12720466 -263.83329866 306.31664244 -271.19360352 310.53442383 C-280.47375888 315.85058307 -289.78744551 321.106923 -299.1015625 326.36328125 C-301.96455586 327.97998505 -304.82625499 329.59895427 -307.6875 331.21875 C-315.58460903 335.68835088 -323.4818188 340.15707623 -331.40625 344.578125 C-332.47681641 345.1755249 -333.54738281 345.7729248 -334.65039062 346.38842773 C-336.77897934 347.57600877 -338.90787938 348.763032 -341.03710938 349.94946289 C-348.08970086 353.89228977 -355.07706534 357.93109314 -361.96435547 362.15698242 C-366.67792258 365 -366.67792258 365 -370 365 C-377.17724873 328.54507738 -381.7328345 291.92256252 -383.72900391 254.81591797 C-383.89766716 251.69732574 -384.09646576 248.58366359 -384.32958984 245.46923828 C-384.63009329 241.43929524 -384.8233771 237.41228114 -385 233.375 C-385.09772705 232.22040283 -385.1954541 231.06580566 -385.29614258 229.8762207 C-385.37910312 226.48048895 -385.26351292 224.1583495 -384 221 C-380.61292451 217.9205996 -376.90174218 215.90336085 -372.82574463 213.91009521 C-369.95530788 212.479243 -367.21473954 210.833282 -364.44921875 209.2109375 C-362.19638318 207.93040618 -359.94244231 206.65181782 -357.6875 205.375 C-355.21129555 203.96780165 -352.7363197 202.55845344 -350.26171875 201.1484375 C-349.64569794 200.79755066 -349.02967712 200.44666382 -348.39498901 200.08514404 C-342.57259607 196.76448147 -336.78322638 193.38836939 -331 190 C-321.77214452 184.59618265 -312.50005058 179.27347484 -303.20898438 173.97949219 C-295.11255867 169.36497196 -287.04193491 164.70904745 -279 160 C-270.36502443 154.94369077 -261.69393681 149.95392878 -253 145 C-243.27875494 139.46014067 -233.59105132 133.86625068 -223.93310547 128.21655273 C-213.40915375 122.06233258 -202.84619863 115.97630004 -192.28222656 109.89111328 C-186.85340062 106.76319854 -181.42677993 103.63146269 -176 100.5 C-169.47766725 96.73636081 -162.95486238 92.97355378 -156.4296875 89.21484375 C-145.93767906 83.16944841 -135.45518324 77.10889781 -125 71 C-113.45270484 64.25298806 -101.87097973 57.56660682 -90.28222656 50.89111328 C-84.85340062 47.76319854 -79.42677993 44.63146269 -74 41.5 C-67.47766725 37.73636081 -60.95486238 33.97355378 -54.4296875 30.21484375 C-42.59874052 23.39778476 -30.78147506 16.55886664 -19.00146484 9.65405273 C-14.66101541 7.11420152 -10.31410145 4.5855532 -5.94140625 2.1015625 C-5.22799072 1.69502441 -4.5145752 1.28848633 -3.77954102 0.86962891 C-2 0 -2 0 0 0 Z " fill="#0F9FE3" transform="translate(782,286)"/>
<path d="M0 0 C-0.01881289 0.80561654 -0.03762577 1.61123308 -0.05700874 2.44126225 C-0.50700152 22.09877859 -0.81125038 41.7536971 -0.95596504 61.41589451 C-1.0294218 70.92531267 -1.15105337 80.42942927 -1.38867188 89.9362793 C-1.59581853 98.22898681 -1.7099614 106.51705257 -1.71533382 114.81243271 C-1.72135132 119.20228134 -1.77190396 123.58081427 -1.9341774 127.96789742 C-3.21687773 146.02691015 -3.21687773 146.02691015 3.56027985 161.92017746 C9.54786249 167.01775768 16.68454275 170.03566632 23.98088455 172.80428886 C27.89985772 174.35638581 31.21088072 176.34676468 34.75 178.625 C35.89749389 179.32401241 37.046987 180.01976272 38.19921875 180.7109375 C38.79395996 181.07026367 39.38870117 181.42958984 40.00146484 181.79980469 C44.17486663 184.30608898 48.37019896 186.77550922 52.5625 189.25 C53.49739258 189.80187988 54.43228516 190.35375977 55.39550781 190.92236328 C57.30932919 192.05189059 59.22322961 193.18128399 61.13720703 194.31054688 C66.6678813 197.57442765 72.19631151 200.84211 77.72412109 204.11083984 C82.44166267 206.8998956 87.16191074 209.68420658 91.88671875 212.4609375 C110.53047973 223.42794719 110.53047973 223.42794719 119 229 C111.16338146 237.09783916 102.58293065 244.22858667 93.69140625 251.12109375 C91.23886691 253.02387011 88.81090354 254.95201482 86.40234375 256.91015625 C77.61991818 264.04883128 68.60044316 270.77662372 59.36669922 277.3203125 C56.98971065 279.00730253 54.62172751 280.70642502 52.25390625 282.40625 C40.41363781 290.85284891 28.23274065 298.66666506 15.81591797 306.23779297 C13.85760826 307.46330706 11.92564743 308.7315302 10.01611328 310.03173828 C9.05302246 310.68255371 8.08993164 311.33336914 7.09765625 312.00390625 C6.23793213 312.60146729 5.37820801 313.19902832 4.49243164 313.81469727 C1.446651 315.26315108 0.1585896 315.04039237 -3 314 C-12.53132946 309.28359279 -21.35424822 303.23473255 -30.13085938 297.26464844 C-31.93865019 296.04150888 -33.75573575 294.83406908 -35.578125 293.6328125 C-51.84495118 282.90777309 -67.68905149 271.7202651 -82.95849609 259.61230469 C-84.86522893 258.10643723 -86.78285995 256.61629822 -88.70703125 255.1328125 C-100.19156875 246.25752881 -111.06957758 236.7110018 -121.8203125 226.96484375 C-123.7983952 225.18173336 -125.798558 223.42985231 -127.8125 221.6875 C-138.40469204 212.4310459 -148.48587136 202.67683753 -158.41357422 192.71679688 C-160.3904601 190.73449756 -162.37271039 188.75767367 -164.35546875 186.78125 C-170.45119709 180.68871783 -176.42979798 174.58296602 -182 168 C-183.61967817 166.22429779 -185.24411718 164.45291693 -186.875 162.6875 C-190.93484092 158.23634911 -194.78333768 153.66286663 -198.5625 148.97265625 C-201.93328628 144.86180952 -205.41864861 140.85181897 -208.92724609 136.8581543 C-209.41273926 136.299104 -209.89823242 135.74005371 -210.3984375 135.1640625 C-211.04304932 134.42857178 -211.04304932 134.42857178 -211.70068359 133.67822266 C-213.33815844 131.5632279 -214.6576795 129.31071236 -216 127 C-207.40757092 121.67769927 -198.76611105 116.45157971 -190.0625 111.3125 C-188.87819627 110.6120788 -187.69395265 109.91155598 -186.50976562 109.2109375 C-183.00735144 107.13919975 -179.50374198 105.06949138 -176 103 C-174.10284492 101.87893952 -172.20570807 100.7578482 -170.30859375 99.63671875 C-167.65214771 98.06700064 -164.99562373 96.49741519 -162.33886719 94.92822266 C-151.70436739 88.64629641 -141.08035234 82.34667543 -130.45556641 76.04833984 C-123.68327572 72.03383148 -116.91014738 68.02073638 -110.13720703 64.00732422 C-105.02767418 60.97953521 -99.91821345 57.95162494 -94.80917358 54.92300415 C-82.99292001 47.91838573 -71.17417415 40.91807194 -59.34643555 33.93286133 C-52.63797304 29.97012583 -45.93418016 25.9995543 -39.23190308 22.02636719 C-37.51565106 21.00927519 -35.79896517 19.99291545 -34.08227539 18.9765625 C-28.53671555 15.69290751 -22.99573037 12.40206904 -17.46484375 9.09375 C-16.44648437 8.48660156 -15.428125 7.87945313 -14.37890625 7.25390625 C-12.45882804 6.10899906 -10.54076065 4.96071092 -8.625 3.80859375 C-7.77808594 3.30457031 -6.93117188 2.80054688 -6.05859375 2.28125 C-5.31923584 1.83845703 -4.57987793 1.39566406 -3.81811523 0.93945312 C-2 0 -2 0 0 0 Z " fill="#3772C1" transform="translate(781,856)"/>
<path d="M0 0 C11.23809524 5.61904762 11.23809524 5.61904762 15.42578125 8.171875 C16.37219482 8.74502441 17.3186084 9.31817383 18.29370117 9.90869141 C19.78800659 10.82013916 19.78800659 10.82013916 21.3125 11.75 C23.52265156 13.08723735 25.7336231 14.42312016 27.9453125 15.7578125 C28.51668442 16.10278778 29.08805634 16.44776306 29.67674255 16.80319214 C36.31237605 20.8027568 42.99875029 24.71515007 49.6875 28.625 C52.14068954 30.0597855 54.59377837 31.49474315 57.046875 32.9296875 C57.64045807 33.276828 58.23404114 33.62396851 58.84561157 33.98162842 C66.14580151 38.25255307 73.4252065 42.55846451 80.703125 46.8671875 C84.41806478 49.06642074 88.13739963 51.25800792 91.859375 53.4453125 C110.51874931 64.42022981 110.51874931 64.42022981 119 70 C111.16338146 78.09783916 102.58293065 85.22858667 93.69140625 92.12109375 C91.23886691 94.02387011 88.81090354 95.95201482 86.40234375 97.91015625 C77.61991818 105.04883128 68.60044316 111.77662372 59.36669922 118.3203125 C56.98971065 120.00730253 54.62172751 121.70642502 52.25390625 123.40625 C40.41397151 131.85261086 28.22134367 139.63563295 15.82763672 147.24169922 C11.91387413 149.67538236 8.05462045 152.19172705 4.19946289 154.71704102 C2 156 2 156 0 156 C0 104.52 0 53.04 0 0 Z " fill="#2B3792" transform="translate(781,1015)"/>
</svg>
